<svg class="relative z-10 w-3/5 mx-auto" viewBox="0 0 505 359" fill="none" xmlns="http://www.w3.org/2000/svg"><g filter="url(#filter1_f_4022_1266)"><path d="M168.476 269.688C168.48 270.584 168.803 271.35 169.446 271.987C170.089 272.624 170.859 272.941 171.755 272.936L179.435 272.901L179.643 318.02L171.963 318.056C171.067 318.06 170.301 318.384 169.664 319.027C169.027 319.67 168.71 320.439 168.715 321.335L168.749 328.823L101.934 329.132L101.899 321.644C101.895 320.748 101.572 319.982 100.929 319.344C100.286 318.707 99.5162 318.391 98.6202 318.395L90.9403 318.431L90.7312 273.215L98.4111 273.18C99.3071 273.175 100.074 272.852 100.711 272.209C101.348 271.566 101.664 270.797 101.66 269.901L101.623 261.933L168.438 261.624L168.476 269.688ZM106.192 274.296C105.296 274.3 104.53 274.623 103.893 275.266C103.256 275.909 102.939 276.679 102.943 277.575L103.111 313.862C103.115 314.758 103.439 315.525 104.082 316.162C104.725 316.799 105.494 317.115 106.39 317.111L164.182 316.844C165.078 316.84 165.844 316.516 166.481 315.873C167.118 315.23 167.435 314.461 167.431 313.565L167.263 277.277C167.259 276.381 166.935 275.615 166.292 274.978C165.649 274.341 164.88 274.024 163.984 274.028L106.192 274.296ZM276.651 319.492L276.692 328.324L198.932 328.587L198.621 261.196L276.381 261.124L276.416 268.612C276.42 269.508 276.743 270.275 277.386 270.912C278.029 271.549 278.799 271.865 279.695 271.861L287.375 271.826L287.586 317.521L279.906 317.557C279.01 317.561 278.244 317.884 277.607 318.527L276.651 319.492ZM212.788 273.227L211.833 274.191C211.196 274.834 210.879 275.604 210.883 276.5L211.054 313.363C211.058 314.259 211.382 315.026 212.025 315.663C212.668 316.3 213.437 316.616 214.333 316.612L272.124 316.345C273.02 316.341 273.787 316.017 274.424 315.374C275.061 314.731 275.377 313.962 275.373 313.066L275.203 276.202C275.199 275.306 274.875 274.54 274.232 273.903C273.589 273.265 272.82 272.949 271.924 272.953L212.788 273.227ZM319.011 316.032L395.522 315.678L395.578 327.774L306.875 328.184L306.742 299.288L312.79 299.26C314.134 299.254 315.283 298.801 316.239 297.9C317.195 296.936 317.67 295.782 317.663 294.438C317.657 293.094 317.172 291.944 316.207 290.989C315.243 290.033 314.089 289.558 312.745 289.565L306.697 289.593L306.564 260.985L395.268 260.575L395.323 272.67L318.812 273.024L318.861 283.488C318.867 284.832 319.32 285.982 320.221 286.938C321.185 287.83 322.339 288.272 323.683 288.266L384.354 287.985L384.411 300.177L323.739 300.458C322.395 300.464 321.245 300.949 320.29 301.914C319.398 302.878 318.956 304.032 318.962 305.376L319.011 316.032Z" fill="white"></path><path d="M444.511 287.809L440.536 287.828C437.639 287.841 435.301 290.201 435.314 293.098C435.327 295.995 437.687 298.333 440.584 298.32L444.486 298.302L422.867 329.036L407.153 329.109L433.995 292.89L409.617 260.114L425.004 260.043L444.511 287.809ZM461.821 292.762L489.16 328.729L473.282 328.803L451.381 298.27L455.447 298.251C458.344 298.238 460.682 295.878 460.668 292.981C460.655 290.084 458.296 287.746 455.399 287.759L451.282 287.778L470.672 259.832L486.059 259.761L461.821 292.762Z" fill="white"></path></g><g filter="url(#filter2_d_4022_1266)"><path d="M32.214 331.675L15.9486 331.75L15.804 300.482L32.0694 300.407L32.214 331.675ZM83.0543 331.44L62.7967 331.534L37.0459 300.384L55.7518 300.297L83.0543 331.44ZM32.0233 290.433L15.7578 290.508L15.6152 259.677L31.8807 259.602L32.0233 290.433ZM52.9254 290.336L34.7723 290.42L59.5405 259.474L78.5335 259.386L52.9254 290.336Z" fill="white"></path></g><g filter="url(#filter3_f_4022_1266)"><path d="M32.214 331.675L15.9486 331.75L15.804 300.482L32.0694 300.407L32.214 331.675ZM83.0543 331.44L62.7967 331.534L37.0459 300.384L55.7518 300.297L83.0543 331.44ZM32.0233 290.433L15.7578 290.508L15.6152 259.677L31.8807 259.602L32.0233 290.433ZM52.9254 290.336L34.7723 290.42L59.5405 259.474L78.5335 259.386L52.9254 290.336Z" fill="white"></path></g><g filter="url(#filter4_f_4022_1266)"><g filter="url(#filter5_d_4022_1266)"><path d="M254.108 146.594L177.47 223.944L177.235 173.165L125.557 173.404L204.631 93.5955L253.862 93.3678L254.108 146.594Z" fill="white"></path></g><g filter="url(#filter6_d_4022_1266)"><path d="M259.873 93.3383L336.513 15.987L336.747 66.7677L388.424 66.5287L309.349 146.338L260.12 146.565L259.873 93.3383Z" fill="white"></path></g></g><g filter="url(#filter7_d_4022_1266)"><path d="M254.108 146.594L177.47 223.944L177.235 173.165L125.557 173.404L204.631 93.5955L253.862 93.3678L254.108 146.594Z" fill="white"></path></g><g filter="url(#filter8_d_4022_1266)"><path d="M259.873 93.3383L336.513 15.987L336.747 66.7677L388.424 66.5287L309.349 146.338L260.12 146.565L259.873 93.3383Z" fill="white"></path></g><defs><filter id="filter0_d_4022_1266" x="87.0207" y="257.928" width="404.474" height="77.1512" filterUnits="userSpaceOnUse" color-interpolation-filters="sRGB"><feFlood flood-opacity="0" result="BackgroundImageFix"></feFlood><feColorMatrix in="SourceAlpha" type="matrix" values="0 0 0 0 0 0 0 0 0 0 0 0 0 0 0 0 0 0 127 0" result="hardAlpha"></feColorMatrix><feOffset dy="1.80594"></feOffset><feGaussianBlur stdDeviation="1.82852"></feGaussianBlur><feComposite in2="hardAlpha" operator="out"></feComposite><feColorMatrix type="matrix" values="0 0 0 0 0 0 0 0 0 0 0 0 0 0 0 0 0 0 0.71 0"></feColorMatrix><feBlend mode="normal" in2="BackgroundImageFix" result="effect1_dropShadow_4022_1266"></feBlend><feBlend mode="normal" in="SourceGraphic" in2="effect1_dropShadow_4022_1266" result="shape"></feBlend></filter><filter id="filter1_f_4022_1266" x="75.0623" y="244.145" width="429.713" height="100.653" filterUnits="userSpaceOnUse" color-interpolation-filters="sRGB"><feFlood flood-opacity="0" result="BackgroundImageFix"></feFlood><feBlend mode="normal" in="SourceGraphic" in2="BackgroundImageFix" result="shape"></feBlend><feGaussianBlur stdDeviation="7.80773" result="effect1_foregroundBlur_4022_1266"></feGaussianBlur></filter><filter id="filter2_d_4022_1266" x="12.1118" y="257.613" width="74.4463" height="79.3714" filterUnits="userSpaceOnUse" color-interpolation-filters="sRGB"><feFlood flood-opacity="0" result="BackgroundImageFix"></feFlood><feColorMatrix in="SourceAlpha" type="matrix" values="0 0 0 0 0 0 0 0 0 0 0 0 0 0 0 0 0 0 127 0" result="hardAlpha"></feColorMatrix><feOffset dy="1.73009"></feOffset><feGaussianBlur stdDeviation="1.75172"></feGaussianBlur><feComposite in2="hardAlpha" operator="out"></feComposite><feColorMatrix type="matrix" values="0 0 0 0 0 0 0 0 0 0 0 0 0 0 0 0 0 0 0.71 0"></feColorMatrix><feBlend mode="normal" in2="BackgroundImageFix" result="effect1_dropShadow_4022_1266"></feBlend><feBlend mode="normal" in="SourceGraphic" in2="effect1_dropShadow_4022_1266" result="shape"></feBlend></filter><filter id="filter3_f_4022_1266" x="-0.000232697" y="243.771" width="98.6704" height="103.595" filterUnits="userSpaceOnUse" color-interpolation-filters="sRGB"><feFlood flood-opacity="0" result="BackgroundImageFix"></feFlood><feBlend mode="normal" in="SourceGraphic" in2="BackgroundImageFix" result="shape"></feBlend><feGaussianBlur stdDeviation="7.80773" result="effect1_foregroundBlur_4022_1266"></feGaussianBlur></filter><filter id="filter4_f_4022_1266" x="109.57" y="-7.82013e-05" width="294.841" height="239.931" filterUnits="userSpaceOnUse" color-interpolation-filters="sRGB"><feFlood flood-opacity="0" result="BackgroundImageFix"></feFlood><feBlend mode="normal" in="SourceGraphic" in2="BackgroundImageFix" result="shape"></feBlend><feGaussianBlur stdDeviation="7.99357" result="effect1_foregroundBlur_4022_1266"></feGaussianBlur></filter><filter id="filter5_d_4022_1266" x="122.523" y="91.8322" width="134.619" height="136.644" filterUnits="userSpaceOnUse" color-interpolation-filters="sRGB"><feFlood flood-opacity="0" result="BackgroundImageFix"></feFlood><feColorMatrix in="SourceAlpha" type="matrix" values="0 0 0 0 0 0 0 0 0 0 0 0 0 0 0 0 0 0 127 0" result="hardAlpha"></feColorMatrix><feOffset dy="1.49823"></feOffset><feGaussianBlur stdDeviation="1.51696"></feGaussianBlur><feComposite in2="hardAlpha" operator="out"></feComposite><feColorMatrix type="matrix" values="0 0 0 0 0 0 0 0 0 0 0 0 0 0 0 0 0 0 0.71 0"></feColorMatrix><feBlend mode="normal" in2="BackgroundImageFix" result="effect1_dropShadow_4022_1266"></feBlend><feBlend mode="normal" in="SourceGraphic" in2="effect1_dropShadow_4022_1266" result="shape"></feBlend></filter><filter id="filter6_d_4022_1266" x="256.839" y="14.4514" width="134.619" height="136.646" filterUnits="userSpaceOnUse" color-interpolation-filters="sRGB"><feFlood flood-opacity="0" result="BackgroundImageFix"></feFlood><feColorMatrix in="SourceAlpha" type="matrix" values="0 0 0 0 0 0 0 0 0 0 0 0 0 0 0 0 0 0 127 0" result="hardAlpha"></feColorMatrix><feOffset dy="1.49823"></feOffset><feGaussianBlur stdDeviation="1.51696"></feGaussianBlur><feComposite in2="hardAlpha" operator="out"></feComposite><feColorMatrix type="matrix" values="0 0 0 0 0 0 0 0 0 0 0 0 0 0 0 0 0 0 0.71 0"></feColorMatrix><feBlend mode="normal" in2="BackgroundImageFix" result="effect1_dropShadow_4022_1266"></feBlend><feBlend mode="normal" in="SourceGraphic" in2="effect1_dropShadow_4022_1266" result="shape"></feBlend></filter><filter id="filter7_d_4022_1266" x="122.523" y="91.8322" width="134.619" height="136.644" filterUnits="userSpaceOnUse" color-interpolation-filters="sRGB"><feFlood flood-opacity="0" result="BackgroundImageFix"></feFlood><feColorMatrix in="SourceAlpha" type="matrix" values="0 0 0 0 0 0 0 0 0 0 0 0 0 0 0 0 0 0 127 0" result="hardAlpha"></feColorMatrix><feOffset dy="1.49823"></feOffset><feGaussianBlur stdDeviation="1.51696"></feGaussianBlur><feComposite in2="hardAlpha" operator="out"></feComposite><feColorMatrix type="matrix" values="0 0 0 0 0 0 0 0 0 0 0 0 0 0 0 0 0 0 0.71 0"></feColorMatrix><feBlend mode="normal" in2="BackgroundImageFix" result="effect1_dropShadow_4022_1266"></feBlend><feBlend mode="normal" in="SourceGraphic" in2="effect1_dropShadow_4022_1266" result="shape"></feBlend></filter><filter id="filter8_d_4022_1266" x="256.839" y="14.4514" width="134.619" height="136.646" filterUnits="userSpaceOnUse" color-interpolation-filters="sRGB"><feFlood flood-opacity="0" result="BackgroundImageFix"></feFlood><feColorMatrix in="SourceAlpha" type="matrix" values="0 0 0 0 0 0 0 0 0 0 0 0 0 0 0 0 0 0 127 0" result="hardAlpha"></feColorMatrix><feOffset dy="1.49823"></feOffset><feGaussianBlur stdDeviation="1.51696"></feGaussianBlur><feComposite in2="hardAlpha" operator="out"></feComposite><feColorMatrix type="matrix" values="0 0 0 0 0 0 0 0 0 0 0 0 0 0 0 0 0 0 0.71 0"></feColorMatrix><feBlend mode="normal" in2="BackgroundImageFix" result="effect1_dropShadow_4022_1266"></feBlend><feBlend mode="normal" in="SourceGraphic" in2="effect1_dropShadow_4022_1266" result="shape"></feBlend></filter></defs></svg>