<svg width="190" height="43" class="mx-auto mb-5" viewBox="0 0 190 43" fill="none" xmlns="http://www.w3.org/2000/svg"><g filter="url(#filter0_d_44_3869)"><path d="M61.2187 8.16661C61.2203 8.52127 61.3484 8.82469 61.6029 9.07685C61.8574 9.329 62.162 9.45426 62.5166 9.45262L65.5566 9.43856L65.6392 27.2984L62.5992 27.3124C62.2446 27.3141 61.9412 27.4421 61.689 27.6966C61.4368 27.9512 61.3116 28.2557 61.3132 28.6104L61.3269 31.5744L34.8792 31.6967L34.8655 28.7327C34.8639 28.378 34.7358 28.0746 34.4813 27.8225C34.2268 27.5703 33.9222 27.4451 33.5675 27.4467L30.5276 27.4608L30.4448 9.56295L33.4848 9.54889C33.8394 9.54725 34.1428 9.41918 34.395 9.16467C34.6472 8.91017 34.7724 8.60559 34.7708 8.25093L34.7562 5.09696L61.2039 4.97464L61.2187 8.16661ZM36.5648 9.99065C36.2102 9.99229 35.9068 10.1204 35.6546 10.3749C35.4024 10.6294 35.2772 10.9339 35.2788 11.2886L35.3453 25.6525C35.3469 26.0071 35.475 26.3105 35.7295 26.5627C35.984 26.8149 36.2886 26.9401 36.6432 26.9385L59.519 26.8327C59.8736 26.831 60.1771 26.703 60.4292 26.4485C60.6814 26.194 60.8066 25.8894 60.805 25.5347L60.7386 11.1709C60.7369 10.8162 60.6088 10.5128 60.3543 10.2606C60.0998 10.0085 59.7953 9.88321 59.4406 9.88485L36.5648 9.99065ZM104.038 27.8808L104.054 31.3768L73.2744 31.4811L73.151 4.80539L103.931 4.77704L103.945 7.74101C103.947 8.09567 104.075 8.39908 104.329 8.65124C104.584 8.9034 104.888 9.02866 105.243 9.02702L108.283 9.01296L108.366 27.1008L105.327 27.1148C104.972 27.1165 104.668 27.2445 104.416 27.499L104.038 27.8808ZM78.7591 9.56751L78.3808 9.94926C78.1287 10.2038 78.0034 10.5083 78.0051 10.863L78.0725 25.4549C78.0742 25.8095 78.2023 26.1129 78.4568 26.3651C78.7113 26.6172 79.0158 26.7425 79.3705 26.7409L102.246 26.6351C102.601 26.6334 102.904 26.5054 103.156 26.2509C103.409 25.9964 103.534 25.6918 103.532 25.3371L103.465 10.7453C103.463 10.3906 103.335 10.0872 103.081 9.83503C102.826 9.58287 102.521 9.45761 102.167 9.45925L78.7591 9.56751ZM120.806 26.5112L151.091 26.3712L151.113 31.1591L116.002 31.3215L115.949 19.8836L118.343 19.8726C118.875 19.8701 119.33 19.6907 119.708 19.3342C120.087 18.9525 120.275 18.4956 120.272 17.9636C120.27 17.4316 120.078 16.9765 119.696 16.5983C119.314 16.22 118.857 16.0321 118.325 16.0346L115.931 16.0457L115.879 4.72178L150.99 4.5594L151.013 9.34735L120.727 9.48742L120.746 13.6294C120.749 14.1614 120.928 14.6165 121.284 14.9949C121.666 15.3478 122.123 15.523 122.655 15.5206L146.671 15.4095L146.693 20.2354L122.677 20.3465C122.145 20.349 121.69 20.5411 121.312 20.9228C120.959 21.3045 120.784 21.7613 120.786 22.2933L120.806 26.5112Z" fill="white"></path><path d="M168.148 15.0369L166.87 15.0428C165.81 15.0477 164.954 15.912 164.959 16.9726C164.964 18.033 165.827 18.8884 166.888 18.8836L168.361 18.8768L159.746 31.1228L153.629 31.1511L164.079 17.0499L154.588 4.28991L160.578 4.26221L168.148 15.0369ZM174.913 16.9998L185.556 31.0034L179.374 31.032L170.648 18.8662L172.329 18.8584C173.39 18.8534 174.245 17.99 174.24 16.9296C174.235 15.8691 173.372 15.0129 172.312 15.0176L170.834 15.0245L178.358 4.17998L184.348 4.15228L174.913 16.9998Z" fill="white"></path></g><g filter="url(#filter1_d_44_3869)"><path d="M9.61483 31.7582L3.62662 31.7859L3.57338 20.2752L9.5616 20.2475L9.61483 31.7582ZM28.3305 31.6716L20.8725 31.7061L11.3936 20.2391L18.2803 20.2072L28.3305 31.6716ZM9.54462 16.5757L3.5564 16.6034L3.50391 5.25293L9.49212 5.22524L9.54462 16.5757ZM17.2389 16.5401L10.5553 16.571L19.6746 5.17814L26.6658 5.14581L17.2389 16.5401Z" fill="white"></path></g><defs><filter id="filter0_d_44_3869" x="26.7668" y="2.30125" width="162.446" height="34.8785" filterUnits="userSpaceOnUse" color-interpolation-filters="sRGB"><feFlood flood-opacity="0" result="BackgroundImageFix"></feFlood><feColorMatrix in="SourceAlpha" type="matrix" values="0 0 0 0 0 0 0 0 0 0 0 0 0 0 0 0 0 0 127 0" result="hardAlpha"></feColorMatrix><feOffset dy="1.80594"></feOffset><feGaussianBlur stdDeviation="1.82852"></feGaussianBlur><feComposite in2="hardAlpha" operator="out"></feComposite><feColorMatrix type="matrix" values="0 0 0 0 0 0 0 0 0 0 0 0 0 0 0 0 0 0 0.71 0"></feColorMatrix><feBlend mode="normal" in2="BackgroundImageFix" result="effect1_dropShadow_44_3869"></feBlend><feBlend mode="normal" in="SourceGraphic" in2="effect1_dropShadow_44_3869" result="shape"></feBlend></filter><filter id="filter1_d_44_3869" x="0.000463247" y="3.3724" width="31.8331" height="33.647" filterUnits="userSpaceOnUse" color-interpolation-filters="sRGB"><feFlood flood-opacity="0" result="BackgroundImageFix"></feFlood><feColorMatrix in="SourceAlpha" type="matrix" values="0 0 0 0 0 0 0 0 0 0 0 0 0 0 0 0 0 0 127 0" result="hardAlpha"></feColorMatrix><feOffset dy="1.73009"></feOffset><feGaussianBlur stdDeviation="1.75172"></feGaussianBlur><feComposite in2="hardAlpha" operator="out"></feComposite><feColorMatrix type="matrix" values="0 0 0 0 0 0 0 0 0 0 0 0 0 0 0 0 0 0 0.71 0"></feColorMatrix><feBlend mode="normal" in2="BackgroundImageFix" result="effect1_dropShadow_44_3869"></feBlend><feBlend mode="normal" in="SourceGraphic" in2="effect1_dropShadow_44_3869" result="shape"></feBlend></filter></defs></svg>