<svg class="relative z-10 w-3/5 mx-auto" viewBox="0 0 575 410" fill="none" xmlns="http://www.w3.org/2000/svg"><g filter="url(#filter0_f_217_686)"><path d="M491.713 85.0629L294.992 84.0933C263.518 83.9382 255.772 95.1669 256.267 140.237C256.758 185.307 264.395 196.612 294.437 196.76L491.158 197.729C509.737 197.821 519.919 193.76 525.121 180.557L502.052 180.443C499.238 181.965 495.684 182.55 491.233 182.528L294.512 181.559C278.416 181.48 274.346 173.233 274.15 140.325C273.954 107.418 278.109 99.2115 294.918 99.2943L491.638 100.264C508.092 100.345 512.162 108.592 512.001 141.318C511.953 150.993 511.565 158.54 510.628 164.375L529.685 151.519C529.801 148.354 529.867 144.987 529.884 141.407C530.106 96.519 522.471 85.2145 491.713 85.0629Z" fill="white"></path><path d="M248.164 197.952L188.293 142.298L248.69 86.9609L223.862 86.6916L169.006 136.965L69.4479 136.474L69.6921 86.9404L52.7338 86.8568L52.1865 197.901L69.1448 197.985L69.3644 153.433L175.952 153.958L224.041 197.833L248.164 197.952Z" fill="white"></path></g><path d="M491.713 85.0629L294.992 84.0933C263.518 83.9382 255.772 95.1669 256.267 140.237C256.758 185.307 264.395 196.612 294.437 196.76L491.158 197.729C509.737 197.821 519.919 193.76 525.121 180.557L502.052 180.443C499.238 181.965 495.684 182.55 491.233 182.528L294.512 181.559C278.416 181.48 274.346 173.233 274.15 140.325C273.954 107.418 278.109 99.2115 294.918 99.2943L491.638 100.264C508.092 100.345 512.162 108.592 512.001 141.318C511.953 150.993 511.565 158.54 510.628 164.375L529.685 151.519C529.801 148.354 529.867 144.987 529.884 141.407C530.106 96.519 522.471 85.2145 491.713 85.0629Z" fill="white"></path><path d="M248.164 197.952L188.293 142.298L248.69 86.9609L223.862 86.6916L169.006 136.965L69.4479 136.474L69.6921 86.9404L52.7338 86.8568L52.1865 197.901L69.1448 197.985L69.3644 153.433L175.952 153.958L224.041 197.833L248.164 197.952Z" fill="white"></path><g filter="url(#filter1_f_217_686)"><path d="M43.9013 311.111L43.8383 323.89L244.199 324.877C272.89 325.018 280.108 315.698 280.292 278.277C280.477 240.855 273.351 231.464 244.66 231.323L44.2994 230.335L44.0709 276.689L59.7077 267.712L59.8262 243.666L223.862 244.474L243.794 243.305L243.788 244.572L244.594 244.576C260.811 244.656 264.832 251.381 264.7 278.2C264.568 305.019 260.481 311.704 244.264 311.624L243.457 311.62L243.455 312.094L43.9013 311.111Z" fill="white"></path><path fill-rule="evenodd" clip-rule="evenodd" d="M520.565 280.552C525.697 283.385 528.475 288.856 528.428 298.367L528.29 326.277L512.698 326.2L512.836 298.29C512.881 289.091 510.878 284.403 502.928 284.364L307.865 283.402L307.659 325.19L292.067 325.113L292.528 231.559L503.183 232.597C522.204 232.691 528.719 239.272 528.626 258.139C528.569 269.677 526.354 276.683 520.565 280.552ZM308.055 244.889L307.93 270.149L502.993 271.11C512.19 271.155 515.327 267.741 515.375 258.074C515.419 249.03 512.314 245.896 503.117 245.851L308.055 244.889Z" fill="white"></path></g><path d="M43.9013 311.111L43.8383 323.89L244.199 324.877C272.89 325.018 280.108 315.698 280.292 278.277C280.477 240.855 273.351 231.464 244.66 231.323L44.2994 230.335L44.0709 276.689L59.7077 267.712L59.8262 243.666L223.862 244.474L243.794 243.305L243.788 244.572L244.594 244.576C260.811 244.656 264.832 251.381 264.7 278.2C264.568 305.019 260.481 311.704 244.264 311.624L243.457 311.62L243.455 312.094L43.9013 311.111Z" fill="white"></path><path fill-rule="evenodd" clip-rule="evenodd" d="M520.565 280.552C525.697 283.385 528.475 288.856 528.428 298.367L528.29 326.277L512.698 326.2L512.836 298.29C512.881 289.091 510.878 284.403 502.928 284.364L307.865 283.402L307.659 325.19L292.067 325.113L292.528 231.559L503.183 232.597C522.204 232.691 528.719 239.272 528.626 258.139C528.569 269.677 526.354 276.683 520.565 280.552ZM308.055 244.889L307.93 270.149L502.993 271.11C512.19 271.155 515.327 267.741 515.375 258.074C515.419 249.03 512.314 245.896 503.117 245.851L308.055 244.889Z" fill="white"></path><defs><filter id="filter0_f_217_686" x="22.0006" y="53.9058" width="538.074" height="174.265" filterUnits="userSpaceOnUse" color-interpolation-filters="sRGB"><feFlood flood-opacity="0" result="BackgroundImageFix"></feFlood><feBlend mode="normal" in="SourceGraphic" in2="BackgroundImageFix" result="shape"></feBlend><feGaussianBlur stdDeviation="15.093" result="effect1_foregroundBlur_217_686"></feGaussianBlur></filter><filter id="filter1_f_217_686" x="17.5197" y="204.017" width="537.426" height="148.579" filterUnits="userSpaceOnUse" color-interpolation-filters="sRGB"><feFlood flood-opacity="0" result="BackgroundImageFix"></feFlood><feBlend mode="normal" in="SourceGraphic" in2="BackgroundImageFix" result="shape"></feBlend><feGaussianBlur stdDeviation="13.1593" result="effect1_foregroundBlur_217_686"></feGaussianBlur></filter></defs></svg>