<svg class="mx-auto mb-5 -mt-10" width="250" viewBox="0 0 250 80" fill="none" xmlns="http://www.w3.org/2000/svg"><path d="M111.931 40.9107L64.5515 40.6772C56.9709 40.6398 55.1055 43.3442 55.2246 54.1991C55.3428 65.054 57.1823 67.7767 64.4178 67.8124L111.797 68.0459C116.271 68.0679 118.724 67.0898 119.977 63.91L114.421 63.8826C113.743 64.2491 112.887 64.3901 111.815 64.3848L64.4358 64.1513C60.5592 64.1322 59.5789 62.146 59.5317 54.2204C59.4845 46.2948 60.4852 44.3183 64.5334 44.3383L111.913 44.5718C115.875 44.5913 116.856 46.5775 116.817 54.4596C116.805 56.7896 116.712 58.6073 116.486 60.0125L121.076 56.9163C121.104 56.154 121.12 55.343 121.124 54.4808C121.177 43.6699 119.339 40.9472 111.931 40.9107Z" fill="white"></path><path d="M53.273 68.0994L38.8535 54.6956L53.3997 41.3678L47.42 41.303L34.2084 53.4111L10.2302 53.2929L10.289 41.3629L6.20474 41.3428L6.07293 68.0872L10.1572 68.1073L10.2101 57.3772L35.8811 57.5037L47.4632 68.0708L53.273 68.0994Z" fill="white"></path><path d="M126.875 62.5038L126.86 65.5816L175.116 65.8194C182.026 65.8535 183.764 63.6088 183.809 54.596C183.853 45.5832 182.137 43.3215 175.227 43.2874L126.971 43.0496L126.916 54.2136L130.682 52.0516L130.711 46.2601L170.218 46.4548L175.018 46.1731L175.017 46.4785L175.211 46.4794C179.117 46.4987 180.085 48.1183 180.054 54.5775C180.022 61.0366 179.037 62.6466 175.132 62.6274L174.937 62.6264L174.937 62.7407L126.875 62.5038Z" fill="white"></path><path fill-rule="evenodd" clip-rule="evenodd" d="M241.677 55.1441C242.913 55.8262 243.582 57.1439 243.571 59.4346L243.538 66.1567L239.783 66.1381L239.816 59.4161C239.827 57.2004 239.344 56.0714 237.429 56.062L190.45 55.8304L190.4 65.8948L186.645 65.8762L186.756 43.3442L237.491 43.5943C242.072 43.6168 243.641 45.2019 243.619 49.7459C243.605 52.5248 243.072 54.2121 241.677 55.1441ZM190.495 46.5548L190.465 52.6384L237.445 52.8699C239.66 52.8809 240.416 52.0584 240.427 49.7301C240.438 47.5521 239.69 46.7972 237.475 46.7863L190.495 46.5548Z" fill="white"></path></svg>