<svg class="ml-auto md:w-[100px]" viewBox="0 0 128 57" fill="none" xmlns="http://www.w3.org/2000/svg"><g filter="url(#filter0_dii_5_3329)"><rect x="12" y="12" width="104" height="33" rx="16.5" fill="#E5E5E5"></rect><rect x="12.5" y="12.5" width="103" height="32" rx="16" stroke="#181818" stroke-opacity="0.03"></rect><mask id="path-3-inside-1_5_3329" fill="white"><path d="M50.7025 26.0532C50.7025 26.6089 50.3564 27.0832 49.2593 27.0832C48.0739 27.0832 47.5879 26.5274 47.5879 25.653H48.1916C48.1916 26.2903 48.5598 26.5867 49.2667 26.5867C49.8336 26.5867 50.0987 26.4533 50.0987 26.0754C50.0987 25.5937 49.6054 25.5122 49.0089 25.327C48.3168 25.1046 47.7572 24.8897 47.7572 24.2228C47.7572 23.6374 48.2505 23.2521 49.0899 23.2521C50.2312 23.2521 50.5773 23.8819 50.5773 24.4896H49.9735C49.9735 23.9931 49.6716 23.7485 49.0899 23.7485C48.685 23.7485 48.361 23.8671 48.361 24.2006C48.361 24.5563 48.6114 24.6674 49.2004 24.8601C49.922 25.0972 50.7025 25.2603 50.7025 26.0532ZM53.5453 23.2521C54.37 23.2521 54.9075 23.7337 54.9075 24.7563V27.0091H54.3111V24.8378C54.3111 24.0672 54.0092 23.7708 53.3834 23.7708C52.6102 23.7708 52.0654 24.3858 52.0654 25.3788V27.0091H51.4616V21.5625H52.0654V23.9635L51.9696 24.3858H52.139C52.2862 23.7189 52.7501 23.2521 53.5453 23.2521ZM55.7365 25.1195C55.7365 23.9338 56.4728 23.2521 57.511 23.2521C58.5419 23.2521 59.2193 23.9116 59.2193 25.0453V25.2825H56.3256C56.3624 25.9791 56.6937 26.5793 57.5994 26.5793C58.2032 26.5793 58.6081 26.2829 58.7407 25.7197H59.3444C59.2045 26.2903 58.7627 27.0832 57.5994 27.0832C56.2887 27.0832 55.7365 26.1791 55.7365 25.1195ZM56.3256 24.823H58.6302C58.6302 24.2302 58.2399 23.7634 57.511 23.7634C56.7894 23.7634 56.3256 24.2302 56.3256 24.823ZM60.1765 27.0091V23.7634C60.1765 23.4151 60.3385 23.2446 60.6846 23.2595L62.7168 23.3262V23.8449L60.7803 23.7782V27.0091H60.1765ZM66.3425 23.3262H66.9978L65.4073 26.972V28.0021C65.4073 28.2837 65.2454 28.4541 64.8993 28.4393L63.4855 28.3726V27.8539L64.8036 27.9206V26.972L63.2057 23.3262H63.8684L65.0171 26.194V26.4755H65.1938V26.194L66.3425 23.3262ZM68.7081 22.7407C68.4063 22.7407 68.178 22.5184 68.178 22.222C68.178 21.9404 68.4063 21.7107 68.7081 21.7107C69.0027 21.7107 69.2383 21.9404 69.2383 22.222C69.2383 22.5184 69.0027 22.7407 68.7081 22.7407ZM67.4859 27.0091V26.4904H68.5167V23.7782L67.7583 23.8449V23.3262L68.6051 23.2521C68.9512 23.2224 69.0837 23.4151 69.0837 23.6967V26.4904H70.1145V27.0091H67.4859ZM70.736 25.9865C70.736 25.4011 71.0821 25.0009 71.9362 24.912L73.3941 24.7712C73.3573 24.0968 72.9965 23.7634 72.3633 23.7634C71.8331 23.7634 71.3398 24.0005 71.3398 24.697H70.7507C70.7507 23.9338 71.3251 23.2521 72.3633 23.2521C73.3867 23.2521 73.9977 23.9338 73.9977 24.9194V26.4904H74.5355V27.0091H73.8873C73.6075 27.0091 73.4531 26.8535 73.4531 26.5793V26.3792L73.549 25.9939H73.372C73.2321 26.557 72.8419 27.0832 71.9583 27.0832C70.898 27.0832 70.736 26.3718 70.736 25.9865ZM71.3398 25.9124C71.3398 26.3347 71.6049 26.5645 72.0319 26.5645C72.8639 26.5645 73.3941 25.9865 73.3941 25.2232L72.0393 25.364C71.5754 25.4085 71.3398 25.5493 71.3398 25.9124ZM77.1481 23.7708C76.375 23.7708 75.8299 24.3858 75.8299 25.3788V27.0091H75.2263V23.3262H75.8299V23.9635L75.7346 24.3858H75.904C76.0511 23.7189 76.5149 23.2521 77.3102 23.2521C78.1346 23.2521 78.6724 23.7337 78.6724 24.7563V27.0091H78.076V24.8378C78.076 24.0672 77.774 23.7708 77.1481 23.7708ZM82.5421 26.0532C82.5421 26.6089 82.196 27.0832 81.0991 27.0832C79.9136 27.0832 79.4276 26.5274 79.4276 25.653H80.0312C80.0312 26.2903 80.3996 26.5867 81.1064 26.5867C81.6732 26.5867 81.9385 26.4533 81.9385 26.0754C81.9385 25.5937 81.4452 25.5122 80.8488 25.327C80.1566 25.1046 79.597 24.8897 79.597 24.2228C79.597 23.6374 80.0903 23.2521 80.9297 23.2521C82.0711 23.2521 82.4172 23.8819 82.4172 24.4896H81.8131C81.8131 23.9931 81.5115 23.7485 80.9297 23.7485C80.525 23.7485 80.2006 23.8671 80.2006 24.2006C80.2006 24.5563 80.4509 24.6674 81.04 24.8601C81.7618 25.0972 82.5421 25.2603 82.5421 26.0532ZM47.6615 32.4716C47.6615 31.4119 48.3463 30.5598 49.5317 30.5598C50.2386 30.5598 51.1443 30.9599 51.24 32.027H50.6289C50.5258 31.323 50.0619 31.0785 49.5317 31.0785C48.6629 31.0785 48.2653 31.7157 48.2653 32.4716C48.2653 33.2349 48.6629 33.8721 49.5317 33.8721C50.0619 33.8721 50.5258 33.6276 50.6289 32.9237H51.24C51.1443 33.9907 50.2386 34.3909 49.5317 34.3909C48.3463 34.3909 47.6615 33.5387 47.6615 32.4716ZM51.9255 32.4716C51.9255 31.4045 52.6913 30.5598 53.862 30.5598C55.0254 30.5598 55.7838 31.4045 55.7838 32.4716C55.7838 33.5461 55.0254 34.3909 53.862 34.3909C52.6913 34.3909 51.9255 33.5461 51.9255 32.4716ZM52.5293 32.4716C52.5293 33.2423 52.9932 33.8721 53.862 33.8721C54.7235 33.8721 55.1874 33.2423 55.1874 32.4716C55.1874 31.7083 54.7235 31.0785 53.862 31.0785C52.9932 31.0785 52.5293 31.7083 52.5293 32.4716ZM60.3796 34.3168H59.7758V33.7758L59.8789 33.3609H59.7022C59.5475 33.9314 59.0542 34.3909 58.2222 34.3909C57.1619 34.3909 56.4771 33.5683 56.4771 32.4716C56.4771 31.3823 57.1619 30.5598 58.2222 30.5598C59.0542 30.5598 59.5475 31.0192 59.7022 31.5972H59.8789L59.7758 31.1748V28.8702H60.3796V34.3168ZM59.7758 32.4716C59.7758 31.4934 59.1573 31.0785 58.3989 31.0785C57.6405 31.0785 57.0809 31.4934 57.0809 32.4716C57.0809 33.4572 57.6405 33.8721 58.3989 33.8721C59.1573 33.8721 59.7758 33.4572 59.7758 32.4716ZM62.4524 30.0484C62.1505 30.0484 61.9222 29.8261 61.9222 29.5297C61.9222 29.2481 62.1505 29.0184 62.4524 29.0184C62.7469 29.0184 62.9825 29.2481 62.9825 29.5297C62.9825 29.8261 62.7469 30.0484 62.4524 30.0484ZM61.2301 34.3168V33.798H62.2609V31.0859L61.5025 31.1526V30.6339L62.3493 30.5598C62.6953 30.5301 62.8279 30.7228 62.8279 31.0044V33.798H63.8587V34.3168H61.2301ZM66.542 31.0785C65.7689 31.0785 65.2241 31.6935 65.2241 32.6865V34.3168H64.6203V30.6339H65.2241V31.2711L65.1283 31.6935H65.2977C65.4449 31.0266 65.9088 30.5598 66.7041 30.5598C67.5287 30.5598 68.0662 31.0414 68.0662 32.064V34.3168H67.4698V32.1455C67.4698 31.3749 67.1679 31.0785 66.542 31.0785ZM72.7994 30.6339H73.1234V31.1526H72.8141C72.608 31.1526 72.4754 31.197 72.3355 31.3008C72.4901 31.4934 72.5859 31.7602 72.5859 32.0789C72.5859 32.8718 71.9674 33.3683 70.8629 33.7758C71.717 33.635 72.5417 33.7536 72.5417 34.5687C72.5417 35.5469 71.5403 35.6729 69.0884 35.6729V35.1542C71.1869 35.1542 71.9379 35.1023 71.9379 34.5243C71.9379 33.7091 70.3254 34.1019 69.4197 34.3761L69.2946 33.9537C69.8836 33.7906 70.4653 33.6202 71.0322 33.4424V33.2719C69.8541 33.5757 68.8233 33.1904 68.8233 32.0492C68.8233 31.034 69.648 30.5598 70.7009 30.5598C71.1427 30.5598 71.5992 30.6709 71.9453 30.9155C72.3282 30.6709 72.4681 30.6339 72.7994 30.6339ZM70.7083 33.057C71.4814 33.057 71.9821 32.7829 71.9821 32.064C71.9821 31.3526 71.4814 31.0785 70.7083 31.0785C69.9425 31.0785 69.4271 31.3526 69.4271 32.064C69.4271 32.7829 69.9425 33.057 70.7083 33.057ZM79.17 33.3609C79.17 33.9166 78.8239 34.3909 77.7265 34.3909C76.541 34.3909 76.0555 33.8351 76.0555 32.9607H76.6591C76.6591 33.598 77.027 33.8944 77.7343 33.8944C78.3011 33.8944 78.5659 33.761 78.5659 33.3831C78.5659 32.9014 78.0727 32.8199 77.4763 32.6347C76.784 32.4123 76.2244 32.1974 76.2244 31.5305C76.2244 30.9451 76.7182 30.5598 77.5576 30.5598C78.6986 30.5598 79.0447 31.1896 79.0447 31.7972H78.441C78.441 31.3008 78.139 31.0562 77.5576 31.0562C77.1524 31.0562 76.8286 31.1748 76.8286 31.5083C76.8286 31.8639 77.0788 31.9751 77.668 32.1678C78.3892 32.4049 79.17 32.568 79.17 33.3609ZM79.7887 32.4716C79.7887 31.4119 80.4737 30.5598 81.6592 30.5598C82.3659 30.5598 83.2716 30.9599 83.3675 32.027H82.7561C82.653 31.323 82.1892 31.0785 81.6592 31.0785C80.7903 31.0785 80.3928 31.7157 80.3928 32.4716C80.3928 33.2349 80.7903 33.8721 81.6592 33.8721C82.1892 33.8721 82.653 33.6276 82.7561 32.9237H83.3675C83.2716 33.9907 82.3659 34.3909 81.6592 34.3909C80.4737 34.3909 79.7887 33.5387 79.7887 32.4716ZM86.3271 30.5598C87.152 30.5598 87.6893 31.0414 87.6893 32.064V34.3168H87.0929V32.1455C87.0929 31.3749 86.7909 31.0785 86.165 31.0785C85.3919 31.0785 84.8473 31.6935 84.8473 32.6865V34.3168H84.2432V28.8702H84.8473V31.2711L84.7514 31.6935H84.9209C85.068 31.0266 85.5318 30.5598 86.3271 30.5598ZM88.5181 32.4716C88.5181 31.4045 89.2839 30.5598 90.4548 30.5598C91.6181 30.5598 92.3766 31.4045 92.3766 32.4716C92.3766 33.5461 91.6181 34.3909 90.4548 34.3909C89.2839 34.3909 88.5181 33.5461 88.5181 32.4716ZM89.1222 32.4716C89.1222 33.2423 89.5859 33.8721 90.4548 33.8721C91.316 33.8721 91.7802 33.2423 91.7802 32.4716C91.7802 31.7083 91.316 31.0785 90.4548 31.0785C89.5859 31.0785 89.1222 31.7083 89.1222 32.4716ZM93.0698 32.4716C93.0698 31.4045 93.8356 30.5598 95.0061 30.5598C96.1698 30.5598 96.9279 31.4045 96.9279 32.4716C96.9279 33.5461 96.1698 34.3909 95.0061 34.3909C93.8356 34.3909 93.0698 33.5461 93.0698 32.4716ZM93.6735 32.4716C93.6735 33.2423 94.1377 33.8721 95.0061 33.8721C95.8678 33.8721 96.3315 33.2423 96.3315 32.4716C96.3315 31.7083 95.8678 31.0785 95.0061 31.0785C94.1377 31.0785 93.6735 31.7083 93.6735 32.4716ZM97.2963 34.3168V33.798H98.3269V29.3222L97.5688 29.3889V28.8702L98.4227 28.7961C98.7616 28.7665 98.9233 28.9591 98.9233 29.3074V33.798H99.9471V34.3168H97.2963Z"></path></mask><path d="M50.7025 26.0532C50.7025 26.6089 50.3564 27.0832 49.2593 27.0832C48.0739 27.0832 47.5879 26.5274 47.5879 25.653H48.1916C48.1916 26.2903 48.5598 26.5867 49.2667 26.5867C49.8336 26.5867 50.0987 26.4533 50.0987 26.0754C50.0987 25.5937 49.6054 25.5122 49.0089 25.327C48.3168 25.1046 47.7572 24.8897 47.7572 24.2228C47.7572 23.6374 48.2505 23.2521 49.0899 23.2521C50.2312 23.2521 50.5773 23.8819 50.5773 24.4896H49.9735C49.9735 23.9931 49.6716 23.7485 49.0899 23.7485C48.685 23.7485 48.361 23.8671 48.361 24.2006C48.361 24.5563 48.6114 24.6674 49.2004 24.8601C49.922 25.0972 50.7025 25.2603 50.7025 26.0532ZM53.5453 23.2521C54.37 23.2521 54.9075 23.7337 54.9075 24.7563V27.0091H54.3111V24.8378C54.3111 24.0672 54.0092 23.7708 53.3834 23.7708C52.6102 23.7708 52.0654 24.3858 52.0654 25.3788V27.0091H51.4616V21.5625H52.0654V23.9635L51.9696 24.3858H52.139C52.2862 23.7189 52.7501 23.2521 53.5453 23.2521ZM55.7365 25.1195C55.7365 23.9338 56.4728 23.2521 57.511 23.2521C58.5419 23.2521 59.2193 23.9116 59.2193 25.0453V25.2825H56.3256C56.3624 25.9791 56.6937 26.5793 57.5994 26.5793C58.2032 26.5793 58.6081 26.2829 58.7407 25.7197H59.3444C59.2045 26.2903 58.7627 27.0832 57.5994 27.0832C56.2887 27.0832 55.7365 26.1791 55.7365 25.1195ZM56.3256 24.823H58.6302C58.6302 24.2302 58.2399 23.7634 57.511 23.7634C56.7894 23.7634 56.3256 24.2302 56.3256 24.823ZM60.1765 27.0091V23.7634C60.1765 23.4151 60.3385 23.2446 60.6846 23.2595L62.7168 23.3262V23.8449L60.7803 23.7782V27.0091H60.1765ZM66.3425 23.3262H66.9978L65.4073 26.972V28.0021C65.4073 28.2837 65.2454 28.4541 64.8993 28.4393L63.4855 28.3726V27.8539L64.8036 27.9206V26.972L63.2057 23.3262H63.8684L65.0171 26.194V26.4755H65.1938V26.194L66.3425 23.3262ZM68.7081 22.7407C68.4063 22.7407 68.178 22.5184 68.178 22.222C68.178 21.9404 68.4063 21.7107 68.7081 21.7107C69.0027 21.7107 69.2383 21.9404 69.2383 22.222C69.2383 22.5184 69.0027 22.7407 68.7081 22.7407ZM67.4859 27.0091V26.4904H68.5167V23.7782L67.7583 23.8449V23.3262L68.6051 23.2521C68.9512 23.2224 69.0837 23.4151 69.0837 23.6967V26.4904H70.1145V27.0091H67.4859ZM70.736 25.9865C70.736 25.4011 71.0821 25.0009 71.9362 24.912L73.3941 24.7712C73.3573 24.0968 72.9965 23.7634 72.3633 23.7634C71.8331 23.7634 71.3398 24.0005 71.3398 24.697H70.7507C70.7507 23.9338 71.3251 23.2521 72.3633 23.2521C73.3867 23.2521 73.9977 23.9338 73.9977 24.9194V26.4904H74.5355V27.0091H73.8873C73.6075 27.0091 73.4531 26.8535 73.4531 26.5793V26.3792L73.549 25.9939H73.372C73.2321 26.557 72.8419 27.0832 71.9583 27.0832C70.898 27.0832 70.736 26.3718 70.736 25.9865ZM71.3398 25.9124C71.3398 26.3347 71.6049 26.5645 72.0319 26.5645C72.8639 26.5645 73.3941 25.9865 73.3941 25.2232L72.0393 25.364C71.5754 25.4085 71.3398 25.5493 71.3398 25.9124ZM77.1481 23.7708C76.375 23.7708 75.8299 24.3858 75.8299 25.3788V27.0091H75.2263V23.3262H75.8299V23.9635L75.7346 24.3858H75.904C76.0511 23.7189 76.5149 23.2521 77.3102 23.2521C78.1346 23.2521 78.6724 23.7337 78.6724 24.7563V27.0091H78.076V24.8378C78.076 24.0672 77.774 23.7708 77.1481 23.7708ZM82.5421 26.0532C82.5421 26.6089 82.196 27.0832 81.0991 27.0832C79.9136 27.0832 79.4276 26.5274 79.4276 25.653H80.0312C80.0312 26.2903 80.3996 26.5867 81.1064 26.5867C81.6732 26.5867 81.9385 26.4533 81.9385 26.0754C81.9385 25.5937 81.4452 25.5122 80.8488 25.327C80.1566 25.1046 79.597 24.8897 79.597 24.2228C79.597 23.6374 80.0903 23.2521 80.9297 23.2521C82.0711 23.2521 82.4172 23.8819 82.4172 24.4896H81.8131C81.8131 23.9931 81.5115 23.7485 80.9297 23.7485C80.525 23.7485 80.2006 23.8671 80.2006 24.2006C80.2006 24.5563 80.4509 24.6674 81.04 24.8601C81.7618 25.0972 82.5421 25.2603 82.5421 26.0532ZM47.6615 32.4716C47.6615 31.4119 48.3463 30.5598 49.5317 30.5598C50.2386 30.5598 51.1443 30.9599 51.24 32.027H50.6289C50.5258 31.323 50.0619 31.0785 49.5317 31.0785C48.6629 31.0785 48.2653 31.7157 48.2653 32.4716C48.2653 33.2349 48.6629 33.8721 49.5317 33.8721C50.0619 33.8721 50.5258 33.6276 50.6289 32.9237H51.24C51.1443 33.9907 50.2386 34.3909 49.5317 34.3909C48.3463 34.3909 47.6615 33.5387 47.6615 32.4716ZM51.9255 32.4716C51.9255 31.4045 52.6913 30.5598 53.862 30.5598C55.0254 30.5598 55.7838 31.4045 55.7838 32.4716C55.7838 33.5461 55.0254 34.3909 53.862 34.3909C52.6913 34.3909 51.9255 33.5461 51.9255 32.4716ZM52.5293 32.4716C52.5293 33.2423 52.9932 33.8721 53.862 33.8721C54.7235 33.8721 55.1874 33.2423 55.1874 32.4716C55.1874 31.7083 54.7235 31.0785 53.862 31.0785C52.9932 31.0785 52.5293 31.7083 52.5293 32.4716ZM60.3796 34.3168H59.7758V33.7758L59.8789 33.3609H59.7022C59.5475 33.9314 59.0542 34.3909 58.2222 34.3909C57.1619 34.3909 56.4771 33.5683 56.4771 32.4716C56.4771 31.3823 57.1619 30.5598 58.2222 30.5598C59.0542 30.5598 59.5475 31.0192 59.7022 31.5972H59.8789L59.7758 31.1748V28.8702H60.3796V34.3168ZM59.7758 32.4716C59.7758 31.4934 59.1573 31.0785 58.3989 31.0785C57.6405 31.0785 57.0809 31.4934 57.0809 32.4716C57.0809 33.4572 57.6405 33.8721 58.3989 33.8721C59.1573 33.8721 59.7758 33.4572 59.7758 32.4716ZM62.4524 30.0484C62.1505 30.0484 61.9222 29.8261 61.9222 29.5297C61.9222 29.2481 62.1505 29.0184 62.4524 29.0184C62.7469 29.0184 62.9825 29.2481 62.9825 29.5297C62.9825 29.8261 62.7469 30.0484 62.4524 30.0484ZM61.2301 34.3168V33.798H62.2609V31.0859L61.5025 31.1526V30.6339L62.3493 30.5598C62.6953 30.5301 62.8279 30.7228 62.8279 31.0044V33.798H63.8587V34.3168H61.2301ZM66.542 31.0785C65.7689 31.0785 65.2241 31.6935 65.2241 32.6865V34.3168H64.6203V30.6339H65.2241V31.2711L65.1283 31.6935H65.2977C65.4449 31.0266 65.9088 30.5598 66.7041 30.5598C67.5287 30.5598 68.0662 31.0414 68.0662 32.064V34.3168H67.4698V32.1455C67.4698 31.3749 67.1679 31.0785 66.542 31.0785ZM72.7994 30.6339H73.1234V31.1526H72.8141C72.608 31.1526 72.4754 31.197 72.3355 31.3008C72.4901 31.4934 72.5859 31.7602 72.5859 32.0789C72.5859 32.8718 71.9674 33.3683 70.8629 33.7758C71.717 33.635 72.5417 33.7536 72.5417 34.5687C72.5417 35.5469 71.5403 35.6729 69.0884 35.6729V35.1542C71.1869 35.1542 71.9379 35.1023 71.9379 34.5243C71.9379 33.7091 70.3254 34.1019 69.4197 34.3761L69.2946 33.9537C69.8836 33.7906 70.4653 33.6202 71.0322 33.4424V33.2719C69.8541 33.5757 68.8233 33.1904 68.8233 32.0492C68.8233 31.034 69.648 30.5598 70.7009 30.5598C71.1427 30.5598 71.5992 30.6709 71.9453 30.9155C72.3282 30.6709 72.4681 30.6339 72.7994 30.6339ZM70.7083 33.057C71.4814 33.057 71.9821 32.7829 71.9821 32.064C71.9821 31.3526 71.4814 31.0785 70.7083 31.0785C69.9425 31.0785 69.4271 31.3526 69.4271 32.064C69.4271 32.7829 69.9425 33.057 70.7083 33.057ZM79.17 33.3609C79.17 33.9166 78.8239 34.3909 77.7265 34.3909C76.541 34.3909 76.0555 33.8351 76.0555 32.9607H76.6591C76.6591 33.598 77.027 33.8944 77.7343 33.8944C78.3011 33.8944 78.5659 33.761 78.5659 33.3831C78.5659 32.9014 78.0727 32.8199 77.4763 32.6347C76.784 32.4123 76.2244 32.1974 76.2244 31.5305C76.2244 30.9451 76.7182 30.5598 77.5576 30.5598C78.6986 30.5598 79.0447 31.1896 79.0447 31.7972H78.441C78.441 31.3008 78.139 31.0562 77.5576 31.0562C77.1524 31.0562 76.8286 31.1748 76.8286 31.5083C76.8286 31.8639 77.0788 31.9751 77.668 32.1678C78.3892 32.4049 79.17 32.568 79.17 33.3609ZM79.7887 32.4716C79.7887 31.4119 80.4737 30.5598 81.6592 30.5598C82.3659 30.5598 83.2716 30.9599 83.3675 32.027H82.7561C82.653 31.323 82.1892 31.0785 81.6592 31.0785C80.7903 31.0785 80.3928 31.7157 80.3928 32.4716C80.3928 33.2349 80.7903 33.8721 81.6592 33.8721C82.1892 33.8721 82.653 33.6276 82.7561 32.9237H83.3675C83.2716 33.9907 82.3659 34.3909 81.6592 34.3909C80.4737 34.3909 79.7887 33.5387 79.7887 32.4716ZM86.3271 30.5598C87.152 30.5598 87.6893 31.0414 87.6893 32.064V34.3168H87.0929V32.1455C87.0929 31.3749 86.7909 31.0785 86.165 31.0785C85.3919 31.0785 84.8473 31.6935 84.8473 32.6865V34.3168H84.2432V28.8702H84.8473V31.2711L84.7514 31.6935H84.9209C85.068 31.0266 85.5318 30.5598 86.3271 30.5598ZM88.5181 32.4716C88.5181 31.4045 89.2839 30.5598 90.4548 30.5598C91.6181 30.5598 92.3766 31.4045 92.3766 32.4716C92.3766 33.5461 91.6181 34.3909 90.4548 34.3909C89.2839 34.3909 88.5181 33.5461 88.5181 32.4716ZM89.1222 32.4716C89.1222 33.2423 89.5859 33.8721 90.4548 33.8721C91.316 33.8721 91.7802 33.2423 91.7802 32.4716C91.7802 31.7083 91.316 31.0785 90.4548 31.0785C89.5859 31.0785 89.1222 31.7083 89.1222 32.4716ZM93.0698 32.4716C93.0698 31.4045 93.8356 30.5598 95.0061 30.5598C96.1698 30.5598 96.9279 31.4045 96.9279 32.4716C96.9279 33.5461 96.1698 34.3909 95.0061 34.3909C93.8356 34.3909 93.0698 33.5461 93.0698 32.4716ZM93.6735 32.4716C93.6735 33.2423 94.1377 33.8721 95.0061 33.8721C95.8678 33.8721 96.3315 33.2423 96.3315 32.4716C96.3315 31.7083 95.8678 31.0785 95.0061 31.0785C94.1377 31.0785 93.6735 31.7083 93.6735 32.4716ZM97.2963 34.3168V33.798H98.3269V29.3222L97.5688 29.3889V28.8702L98.4227 28.7961C98.7616 28.7665 98.9233 28.9591 98.9233 29.3074V33.798H99.9471V34.3168H97.2963Z" fill="black" stroke="black" stroke-width="2" mask="url(#path-3-inside-1_5_3329)"></path><path d="M44.9531 21.6504V35.9177" stroke="black" stroke-width="0.563185"></path><mask id="path-5-inside-2_5_3329" fill="white"><path d="M29.6252 28.1424C29.4267 28.0683 29.2298 27.9944 29.0339 27.921C28.6649 27.7827 28.2994 27.6457 27.9334 27.5102C27.8432 27.4769 27.781 27.4285 27.734 27.3397C27.3408 26.5968 26.9439 25.856 26.5439 25.1168C26.4872 25.0121 26.4852 24.9242 26.5264 24.8103C26.6845 24.3731 26.8146 23.927 26.9447 23.4808C27.0035 23.2793 27.0622 23.0779 27.1235 22.8773C27.2171 22.5713 27.3075 22.2641 27.3928 21.9557C27.4172 21.8675 27.4613 21.8028 27.5306 21.7468C27.6107 21.682 27.691 21.6174 27.7714 21.5528C28.0467 21.3314 28.3221 21.1099 28.5896 20.8791C28.7242 20.7629 28.8795 20.7402 29.0356 20.7174C29.0617 20.7136 29.0879 20.7098 29.114 20.7055C29.9208 20.5736 30.728 20.4442 31.5365 20.3229C31.6888 20.3001 31.7358 20.2306 31.7379 20.0861C31.7431 19.716 31.7532 19.7101 32.065 19.9029C32.9521 20.4514 33.8384 21.0014 34.7217 21.5562C34.8363 21.6281 34.9001 21.6259 34.9845 21.5104C35.0929 21.3619 35.2071 21.2175 35.3213 21.0732C35.4198 20.9487 35.5183 20.8242 35.6132 20.6969C35.6881 20.5964 35.7799 20.5496 35.8959 20.5291C35.9557 20.5185 36.0155 20.508 36.0753 20.4975C36.3288 20.4531 36.5823 20.4087 36.8345 20.3577C36.9965 20.3249 37.088 20.3605 37.1283 20.5386C37.1521 20.6435 37.1866 20.746 37.2212 20.8484C37.2543 20.9467 37.2874 21.045 37.3111 21.1456C37.3477 21.3017 37.4184 21.3439 37.5722 21.3163C38.0921 21.2232 38.6134 21.138 39.1353 21.057C39.1577 21.0535 39.1818 21.0467 39.2064 21.0396C39.2853 21.0171 39.3694 20.9931 39.419 21.0751C39.4612 21.1447 39.4112 21.2124 39.3642 21.2761C39.3496 21.2957 39.3354 21.315 39.3242 21.3338C39.2049 21.5354 39.082 21.7358 38.9465 21.9264C38.8656 22.0402 38.8842 22.108 38.9808 22.1995C39.1357 22.3464 39.2873 22.4969 39.439 22.6474C39.7214 22.9276 40.0036 23.2077 40.3061 23.4637C40.5775 23.6936 40.6547 23.9577 40.6717 24.2804C40.6822 24.4793 40.6588 24.6607 40.5689 24.8435C40.3772 25.2333 40.2006 25.6307 40.025 26.0282C39.9695 26.1538 39.9049 26.194 39.7757 26.1288C39.6704 26.0757 39.561 26.0307 39.4517 25.9858C39.4187 25.9723 39.3858 25.9587 39.3529 25.9449C39.272 25.911 39.2459 25.8603 39.2656 25.7695C39.3334 25.4569 39.3949 25.143 39.4553 24.8289C39.4692 24.757 39.5072 24.7039 39.5535 24.6524C39.6079 24.5917 39.6616 24.5305 39.725 24.4581C39.7542 24.4248 39.7854 24.3891 39.8197 24.3501C39.7038 24.3192 39.5953 24.2678 39.4888 24.2173C39.2388 24.099 38.9999 23.9858 38.7033 24.1554C38.6788 24.1694 38.6519 24.1791 38.6251 24.1888C38.598 24.1985 38.571 24.2083 38.5464 24.2224C38.1699 24.4387 37.8431 24.3375 37.5404 24.0683C37.5278 24.057 37.5113 24.0501 37.4902 24.0413C37.4787 24.0366 37.466 24.0312 37.4518 24.0244C37.3575 24.2296 37.3098 24.4406 37.268 24.65C37.254 24.7203 37.3151 24.7632 37.3725 24.8036C37.3901 24.816 37.4074 24.8282 37.4221 24.8408C37.9483 25.2946 38.4758 25.747 39.0033 26.1993C39.1862 26.3561 39.369 26.5129 39.5517 26.6697C39.6029 26.7136 39.6541 26.7575 39.7053 26.8013C39.8752 26.9467 40.045 27.0921 40.213 27.2397C40.4271 27.4278 40.378 27.7596 40.1229 27.8658C39.9797 27.9254 39.8364 27.9848 39.6931 28.0442C39.3316 28.1941 38.97 28.344 38.6097 28.4971C38.4889 28.5484 38.3765 28.5619 38.2468 28.5279C38.0593 28.4788 37.8707 28.4341 37.682 28.3894C37.5112 28.349 37.3404 28.3085 37.1704 28.2647C37.0616 28.2367 36.9643 28.2424 36.8799 28.3106C36.5471 28.5796 36.2354 28.574 35.8898 28.3067C35.6944 28.1556 35.5119 28.0135 35.3722 27.8025C34.6774 26.7533 33.976 25.7086 33.2745 24.6639C33.1221 24.437 32.9697 24.21 32.8174 23.9831C32.8098 23.9718 32.8026 23.96 32.7953 23.9481C32.7643 23.8972 32.7323 23.8449 32.6656 23.8228C32.5742 23.8696 32.5163 23.9503 32.459 24.0301C32.4437 24.0514 32.4285 24.0727 32.4126 24.0932C32.348 24.177 32.2745 24.2019 32.1756 24.1863C32.0303 24.1634 31.8849 24.1414 31.7394 24.1195C31.4301 24.0727 31.1208 24.026 30.813 23.9705C30.676 23.9458 30.5624 23.9587 30.4653 24.0499C30.2602 24.2423 30.02 24.2384 29.7635 24.2097C29.7187 24.2048 29.6738 24.1986 29.6287 24.1925C29.4742 24.1716 29.3186 24.1504 29.1631 24.173C29.146 24.2599 29.1924 24.2987 29.2348 24.3342C29.2434 24.3414 29.2519 24.3484 29.2596 24.3558C29.4086 24.4967 29.5587 24.6364 29.7089 24.7761C29.8387 24.8969 29.9685 25.0176 30.0975 25.1392C30.1644 25.2022 30.2411 25.2273 30.3293 25.2315C30.4917 25.239 30.6542 25.2469 30.8166 25.2547C31.1596 25.2713 31.5025 25.2879 31.8455 25.302C31.9514 25.3063 32.0401 25.3405 32.1345 25.3872C32.6538 25.644 33.0504 26.0314 33.3723 26.5095C33.4693 26.6536 33.5781 26.7896 33.6871 26.9257C33.7462 26.9995 33.8052 27.0733 33.8625 27.1485C33.9887 27.3142 33.9663 27.3894 33.7725 27.4385C33.3153 27.5544 32.858 27.6698 32.4007 27.7853C31.6949 27.9635 30.9891 28.1416 30.2837 28.3214C30.2066 28.341 30.1405 28.3366 30.0693 28.3086C29.9546 28.2635 29.8389 28.221 29.7168 28.1761C29.6867 28.1651 29.6561 28.1538 29.6252 28.1424Z"></path></mask><path d="M29.6252 28.1424C29.4267 28.0683 29.2298 27.9944 29.0339 27.921C28.6649 27.7827 28.2994 27.6457 27.9334 27.5102C27.8432 27.4769 27.781 27.4285 27.734 27.3397C27.3408 26.5968 26.9439 25.856 26.5439 25.1168C26.4872 25.0121 26.4852 24.9242 26.5264 24.8103C26.6845 24.3731 26.8146 23.927 26.9447 23.4808C27.0035 23.2793 27.0622 23.0779 27.1235 22.8773C27.2171 22.5713 27.3075 22.2641 27.3928 21.9557C27.4172 21.8675 27.4613 21.8028 27.5306 21.7468C27.6107 21.682 27.691 21.6174 27.7714 21.5528C28.0467 21.3314 28.3221 21.1099 28.5896 20.8791C28.7242 20.7629 28.8795 20.7402 29.0356 20.7174C29.0617 20.7136 29.0879 20.7098 29.114 20.7055C29.9208 20.5736 30.728 20.4442 31.5365 20.3229C31.6888 20.3001 31.7358 20.2306 31.7379 20.0861C31.7431 19.716 31.7532 19.7101 32.065 19.9029C32.9521 20.4514 33.8384 21.0014 34.7217 21.5562C34.8363 21.6281 34.9001 21.6259 34.9845 21.5104C35.0929 21.3619 35.2071 21.2175 35.3213 21.0732C35.4198 20.9487 35.5183 20.8242 35.6132 20.6969C35.6881 20.5964 35.7799 20.5496 35.8959 20.5291C35.9557 20.5185 36.0155 20.508 36.0753 20.4975C36.3288 20.4531 36.5823 20.4087 36.8345 20.3577C36.9965 20.3249 37.088 20.3605 37.1283 20.5386C37.1521 20.6435 37.1866 20.746 37.2212 20.8484C37.2543 20.9467 37.2874 21.045 37.3111 21.1456C37.3477 21.3017 37.4184 21.3439 37.5722 21.3163C38.0921 21.2232 38.6134 21.138 39.1353 21.057C39.1577 21.0535 39.1818 21.0467 39.2064 21.0396C39.2853 21.0171 39.3694 20.9931 39.419 21.0751C39.4612 21.1447 39.4112 21.2124 39.3642 21.2761C39.3496 21.2957 39.3354 21.315 39.3242 21.3338C39.2049 21.5354 39.082 21.7358 38.9465 21.9264C38.8656 22.0402 38.8842 22.108 38.9808 22.1995C39.1357 22.3464 39.2873 22.4969 39.439 22.6474C39.7214 22.9276 40.0036 23.2077 40.3061 23.4637C40.5775 23.6936 40.6547 23.9577 40.6717 24.2804C40.6822 24.4793 40.6588 24.6607 40.5689 24.8435C40.3772 25.2333 40.2006 25.6307 40.025 26.0282C39.9695 26.1538 39.9049 26.194 39.7757 26.1288C39.6704 26.0757 39.561 26.0307 39.4517 25.9858C39.4187 25.9723 39.3858 25.9587 39.3529 25.9449C39.272 25.911 39.2459 25.8603 39.2656 25.7695C39.3334 25.4569 39.3949 25.143 39.4553 24.8289C39.4692 24.757 39.5072 24.7039 39.5535 24.6524C39.6079 24.5917 39.6616 24.5305 39.725 24.4581C39.7542 24.4248 39.7854 24.3891 39.8197 24.3501C39.7038 24.3192 39.5953 24.2678 39.4888 24.2173C39.2388 24.099 38.9999 23.9858 38.7033 24.1554C38.6788 24.1694 38.6519 24.1791 38.6251 24.1888C38.598 24.1985 38.571 24.2083 38.5464 24.2224C38.1699 24.4387 37.8431 24.3375 37.5404 24.0683C37.5278 24.057 37.5113 24.0501 37.4902 24.0413C37.4787 24.0366 37.466 24.0312 37.4518 24.0244C37.3575 24.2296 37.3098 24.4406 37.268 24.65C37.254 24.7203 37.3151 24.7632 37.3725 24.8036C37.3901 24.816 37.4074 24.8282 37.4221 24.8408C37.9483 25.2946 38.4758 25.747 39.0033 26.1993C39.1862 26.3561 39.369 26.5129 39.5517 26.6697C39.6029 26.7136 39.6541 26.7575 39.7053 26.8013C39.8752 26.9467 40.045 27.0921 40.213 27.2397C40.4271 27.4278 40.378 27.7596 40.1229 27.8658C39.9797 27.9254 39.8364 27.9848 39.6931 28.0442C39.3316 28.1941 38.97 28.344 38.6097 28.4971C38.4889 28.5484 38.3765 28.5619 38.2468 28.5279C38.0593 28.4788 37.8707 28.4341 37.682 28.3894C37.5112 28.349 37.3404 28.3085 37.1704 28.2647C37.0616 28.2367 36.9643 28.2424 36.8799 28.3106C36.5471 28.5796 36.2354 28.574 35.8898 28.3067C35.6944 28.1556 35.5119 28.0135 35.3722 27.8025C34.6774 26.7533 33.976 25.7086 33.2745 24.6639C33.1221 24.437 32.9697 24.21 32.8174 23.9831C32.8098 23.9718 32.8026 23.96 32.7953 23.9481C32.7643 23.8972 32.7323 23.8449 32.6656 23.8228C32.5742 23.8696 32.5163 23.9503 32.459 24.0301C32.4437 24.0514 32.4285 24.0727 32.4126 24.0932C32.348 24.177 32.2745 24.2019 32.1756 24.1863C32.0303 24.1634 31.8849 24.1414 31.7394 24.1195C31.4301 24.0727 31.1208 24.026 30.813 23.9705C30.676 23.9458 30.5624 23.9587 30.4653 24.0499C30.2602 24.2423 30.02 24.2384 29.7635 24.2097C29.7187 24.2048 29.6738 24.1986 29.6287 24.1925C29.4742 24.1716 29.3186 24.1504 29.1631 24.173C29.146 24.2599 29.1924 24.2987 29.2348 24.3342C29.2434 24.3414 29.2519 24.3484 29.2596 24.3558C29.4086 24.4967 29.5587 24.6364 29.7089 24.7761C29.8387 24.8969 29.9685 25.0176 30.0975 25.1392C30.1644 25.2022 30.2411 25.2273 30.3293 25.2315C30.4917 25.239 30.6542 25.2469 30.8166 25.2547C31.1596 25.2713 31.5025 25.2879 31.8455 25.302C31.9514 25.3063 32.0401 25.3405 32.1345 25.3872C32.6538 25.644 33.0504 26.0314 33.3723 26.5095C33.4693 26.6536 33.5781 26.7896 33.6871 26.9257C33.7462 26.9995 33.8052 27.0733 33.8625 27.1485C33.9887 27.3142 33.9663 27.3894 33.7725 27.4385C33.3153 27.5544 32.858 27.6698 32.4007 27.7853C31.6949 27.9635 30.9891 28.1416 30.2837 28.3214C30.2066 28.341 30.1405 28.3366 30.0693 28.3086C29.9546 28.2635 29.8389 28.221 29.7168 28.1761C29.6867 28.1651 29.6561 28.1538 29.6252 28.1424Z" fill="black" stroke="black" stroke-width="2" mask="url(#path-5-inside-2_5_3329)"></path><path d="M36.2129 30.1152H36.2139C36.3045 30.1373 36.3946 30.1593 36.4844 30.1816C36.6627 30.2259 36.8432 30.2703 37.0254 30.3115L37.0264 30.3125L37.6191 30.9902C37.5496 31.212 37.483 31.4347 37.4199 31.6582C36.4194 32.2606 35.4186 32.8651 34.4199 33.4736C34.1128 33.1202 33.8029 32.7705 33.4941 32.4258C33.4381 32.3632 33.3828 32.3005 33.3271 32.2383C33.331 31.9472 33.3314 31.6558 33.3271 31.3643C33.7499 30.8167 34.1734 30.2667 34.5928 29.7129C35.1284 29.8468 35.6651 29.9799 36.2129 30.1152Z" fill="black" stroke="black"></path><path d="M39.5801 33.5332C39.7154 34.0398 39.8537 34.5451 39.9932 35.0479C39.5525 35.503 39.1128 35.9608 38.6758 36.4219L38.3057 36.3291C37.9642 36.2433 37.633 36.16 37.3066 36.0654C37.0547 35.9924 36.7713 35.9459 36.4697 35.9961C36.3552 35.6247 36.2361 35.2548 36.1123 34.8867C36.7754 34.4297 37.438 33.9717 38.1025 33.5098C38.2942 33.3766 38.4864 33.2429 38.6787 33.1094C38.9788 33.2525 39.2794 33.3937 39.5801 33.5332Z" fill="black" stroke="black"></path><path d="M40.4463 30.4463L40.4668 30.7617C40.479 30.9461 40.4912 31.1341 40.5059 31.3223C40.5092 31.3647 40.5085 31.3888 40.5068 31.4033C40.5055 31.415 40.504 31.4196 40.5029 31.4219C40.4368 31.563 40.3737 31.7061 40.3096 31.8486C40.2582 31.8109 40.2067 31.7731 40.1553 31.7354C39.9517 31.5859 39.7471 31.4357 39.542 31.2861C39.5301 31.0317 39.5175 30.7763 39.502 30.5205C39.7927 30.1594 40.0827 29.7977 40.373 29.4365C40.3977 29.7779 40.4229 30.112 40.4463 30.4463Z" fill="black" stroke="black"></path><mask id="path-9-inside-3_5_3329" fill="white"><path fill-rule="evenodd" clip-rule="evenodd" d="M29.0339 27.921C28.6649 27.7827 28.2994 27.6457 27.9334 27.5102C27.8432 27.4769 27.781 27.4285 27.734 27.3397C27.3408 26.5968 26.9439 25.856 26.5439 25.1168C26.4872 25.0121 26.4852 24.9242 26.5264 24.8103C26.6845 24.3731 26.8146 23.927 26.9447 23.4808C27.0035 23.2793 27.0622 23.0779 27.1235 22.8773C27.2171 22.5713 27.3075 22.2641 27.3928 21.9557C27.4172 21.8675 27.4613 21.8028 27.5306 21.7468C27.6107 21.682 27.691 21.6174 27.7714 21.5528C28.0467 21.3314 28.3221 21.1099 28.5896 20.8791C28.7242 20.7629 28.8795 20.7402 29.0356 20.7174C29.0617 20.7136 29.0879 20.7098 29.114 20.7055C29.9208 20.5736 30.728 20.4442 31.5365 20.3229C31.6888 20.3001 31.7358 20.2306 31.7379 20.0861C31.7431 19.716 31.7532 19.7101 32.065 19.9029C32.9521 20.4514 33.8384 21.0014 34.7217 21.5562C34.8363 21.6281 34.9001 21.6259 34.9845 21.5104C35.0929 21.3619 35.2071 21.2175 35.3213 21.0732C35.4198 20.9487 35.5183 20.8242 35.6132 20.6969C35.6881 20.5964 35.7799 20.5496 35.8959 20.5291C35.9557 20.5185 36.0155 20.508 36.0753 20.4975C36.3288 20.4531 36.5823 20.4087 36.8345 20.3577C36.9965 20.3249 37.088 20.3605 37.1283 20.5386C37.1521 20.6435 37.1866 20.746 37.2212 20.8484C37.2543 20.9467 37.2874 21.045 37.3111 21.1456C37.3477 21.3017 37.4184 21.3439 37.5722 21.3163C38.0921 21.2232 38.6134 21.138 39.1353 21.057C39.1577 21.0535 39.1818 21.0467 39.2064 21.0396C39.2853 21.0171 39.3694 20.9931 39.419 21.0751C39.4612 21.1447 39.4112 21.2124 39.3642 21.2761C39.3496 21.2957 39.3354 21.315 39.3242 21.3338C39.2049 21.5354 39.082 21.7358 38.9465 21.9264C38.8656 22.0402 38.8842 22.108 38.9808 22.1995C39.1357 22.3464 39.2873 22.4969 39.439 22.6474C39.7214 22.9276 40.0036 23.2077 40.3061 23.4637C40.5776 23.6936 40.6547 23.9577 40.6717 24.2804C40.6822 24.4793 40.6588 24.6607 40.5689 24.8435C40.3772 25.2333 40.2006 25.6307 40.025 26.0282C39.9695 26.1538 39.9049 26.194 39.7757 26.1288C39.6704 26.0757 39.561 26.0307 39.4517 25.9858C39.4187 25.9723 39.3858 25.9587 39.3529 25.9449C39.272 25.911 39.2459 25.8603 39.2656 25.7695C39.3334 25.4569 39.3949 25.143 39.4553 24.8289C39.4692 24.757 39.5072 24.7039 39.5535 24.6524C39.6079 24.5917 39.6616 24.5305 39.725 24.4581C39.7542 24.4248 39.7854 24.3891 39.8197 24.3501C39.7038 24.3192 39.5953 24.2678 39.4888 24.2173C39.2388 24.099 38.9999 23.9858 38.7033 24.1554C38.6788 24.1694 38.6519 24.1791 38.6251 24.1888C38.598 24.1985 38.571 24.2083 38.5464 24.2224C38.1699 24.4387 37.8431 24.3375 37.5404 24.0683C37.5278 24.057 37.5113 24.0501 37.4902 24.0413C37.4787 24.0366 37.466 24.0312 37.4518 24.0244C37.3575 24.2296 37.3098 24.4406 37.268 24.65C37.254 24.7203 37.3151 24.7632 37.3725 24.8036C37.3901 24.816 37.4074 24.8282 37.4221 24.8408C37.9483 25.2946 38.4758 25.747 39.0033 26.1993C39.1862 26.3561 39.369 26.5129 39.5517 26.6697C39.6029 26.7136 39.6541 26.7575 39.7053 26.8013C39.8752 26.9467 40.045 27.0921 40.213 27.2397C40.4271 27.4278 40.378 27.7596 40.1229 27.8658C39.9797 27.9254 39.8364 27.9848 39.6931 28.0442C39.3316 28.1941 38.97 28.344 38.6097 28.4971C38.4889 28.5484 38.3765 28.5619 38.2468 28.5279C38.0593 28.4788 37.8707 28.4341 37.682 28.3894C37.5112 28.349 37.3404 28.3085 37.1704 28.2647C37.0616 28.2367 36.9643 28.2424 36.8799 28.3106C36.5471 28.5796 36.2354 28.574 35.8898 28.3067C35.6944 28.1556 35.5119 28.0135 35.3722 27.8025C34.6774 26.7533 33.976 25.7086 33.2745 24.6639C33.1221 24.437 32.9697 24.21 32.8174 23.9831C32.8098 23.9718 32.8026 23.96 32.7953 23.9481C32.7643 23.8972 32.7323 23.8449 32.6656 23.8228C32.5742 23.8696 32.5163 23.9503 32.459 24.0301C32.4437 24.0514 32.4285 24.0727 32.4126 24.0932C32.348 24.177 32.2745 24.2019 32.1756 24.1863C32.0303 24.1634 31.8849 24.1414 31.7394 24.1195C31.4301 24.0727 31.1208 24.026 30.813 23.9705C30.676 23.9458 30.5624 23.9587 30.4653 24.0499C30.2602 24.2423 30.02 24.2384 29.7635 24.2097C29.7187 24.2048 29.6738 24.1986 29.6287 24.1925C29.4742 24.1716 29.3186 24.1504 29.1631 24.173C29.146 24.2599 29.1924 24.2987 29.2348 24.3342C29.2434 24.3414 29.2519 24.3484 29.2596 24.3558C29.4086 24.4967 29.5588 24.6364 29.7089 24.7761C29.8387 24.8969 29.9685 25.0176 30.0975 25.1392C30.1644 25.2022 30.2411 25.2273 30.3293 25.2315C30.4917 25.239 30.6542 25.2469 30.8166 25.2547C31.1596 25.2713 31.5025 25.2879 31.8455 25.302C31.9514 25.3063 32.0401 25.3405 32.1345 25.3872C32.6538 25.644 33.0504 26.0314 33.3723 26.5095C33.4693 26.6536 33.5781 26.7896 33.6871 26.9257C33.7462 26.9995 33.8052 27.0733 33.8625 27.1485C33.9887 27.3142 33.9663 27.3894 33.7725 27.4385C33.3153 27.5544 32.858 27.6698 32.4007 27.7853C31.6949 27.9635 30.9891 28.1416 30.2837 28.3214C30.2066 28.341 30.1405 28.3366 30.0693 28.3086C29.9546 28.2635 29.8389 28.221 29.7168 28.1761C29.6867 28.1651 29.6561 28.1538 29.6252 28.1424L29.0339 27.921ZM36.6044 29.6975C36.7912 29.744 36.9738 29.7894 37.1573 29.8306C37.2515 29.8517 37.3239 29.8932 37.3863 29.9657L37.4052 29.9876C37.626 30.2441 37.8469 30.5007 38.074 30.7517C38.1475 30.8329 38.1698 30.9075 38.1359 31.0135C38.0454 31.2965 37.9603 31.5813 37.8805 31.8674C37.8551 31.9583 37.8045 32.0126 37.7268 32.0594C36.6631 32.6997 35.5996 33.3404 34.5396 33.987C34.3861 34.0806 34.2823 34.0759 34.1595 33.9334C33.8185 33.5379 33.4701 33.1489 33.1218 32.7599C33.0551 32.6855 32.9885 32.6111 32.9219 32.5366C32.8575 32.4646 32.8254 32.3892 32.8269 32.29C32.8316 31.9753 32.8318 31.6604 32.8269 31.3456C32.8253 31.2419 32.8552 31.1589 32.9176 31.0781C33.3712 30.4906 33.8246 29.9029 34.272 29.3106C34.3625 29.1908 34.4648 29.1666 34.5989 29.2002C35.1718 29.3436 35.7452 29.4854 36.3323 29.6303L36.6044 29.6975ZM38.5048 32.622C38.5968 32.5482 38.6781 32.5571 38.7692 32.6008C39.1439 32.7805 39.5202 32.9567 39.8973 33.1313C39.97 33.1649 40.0093 33.2097 40.0311 33.2916C40.1821 33.8601 40.3391 34.4271 40.4964 34.994C40.5335 35.1279 40.5072 35.2366 40.4089 35.338C39.9128 35.8504 39.418 36.3641 38.928 36.8825C38.8453 36.9699 38.7641 36.9626 38.6665 36.9373C38.5057 36.8955 38.3444 36.855 38.1832 36.8145C37.8431 36.729 37.503 36.6436 37.1665 36.546C36.889 36.4656 36.6228 36.4406 36.3511 36.5445C36.1933 36.6049 36.1168 36.5497 36.0678 36.3874C35.9174 35.8897 35.7581 35.3945 35.5907 34.9023C35.5361 34.7416 35.5796 34.6495 35.7122 34.5581C36.4137 34.0751 37.1131 33.5891 37.817 33.0999C38.0457 32.9409 38.2749 32.7816 38.5048 32.622ZM40.8496 29.079C40.8827 29.5336 40.914 29.9723 40.9447 30.411C40.952 30.5166 40.959 30.6222 40.966 30.7279C40.9782 30.9129 40.9904 31.0979 41.0047 31.2828C41.0142 31.4046 41.0089 31.52 40.9555 31.6339C40.8342 31.8925 40.7165 32.153 40.6034 32.4153C40.5409 32.5602 40.4521 32.572 40.3357 32.4868C40.1768 32.3707 40.0181 32.2542 39.8595 32.1377C39.6231 31.9642 39.3868 31.7907 39.1497 31.6183C39.0712 31.5612 39.0519 31.4853 39.0478 31.3953C39.0333 31.0812 39.0174 30.7672 38.9976 30.4535C38.9928 30.3779 39.0199 30.322 39.0646 30.2667C39.395 29.8564 39.7251 29.4459 40.0551 29.0353C40.2221 28.8275 40.3892 28.6197 40.5563 28.412L40.5592 28.4085C40.6054 28.3508 40.6553 28.2888 40.7395 28.3208C40.8063 28.3462 40.8076 28.4066 40.8089 28.4652C40.8091 28.4765 40.8094 28.4879 40.8101 28.4988C40.8224 28.6869 40.835 28.875 40.8496 29.079Z"></path></mask><path fill-rule="evenodd" clip-rule="evenodd" d="M29.0339 27.921C28.6649 27.7827 28.2994 27.6457 27.9334 27.5102C27.8432 27.4769 27.781 27.4285 27.734 27.3397C27.3408 26.5968 26.9439 25.856 26.5439 25.1168C26.4872 25.0121 26.4852 24.9242 26.5264 24.8103C26.6845 24.3731 26.8146 23.927 26.9447 23.4808C27.0035 23.2793 27.0622 23.0779 27.1235 22.8773C27.2171 22.5713 27.3075 22.2641 27.3928 21.9557C27.4172 21.8675 27.4613 21.8028 27.5306 21.7468C27.6107 21.682 27.691 21.6174 27.7714 21.5528C28.0467 21.3314 28.3221 21.1099 28.5896 20.8791C28.7242 20.7629 28.8795 20.7402 29.0356 20.7174C29.0617 20.7136 29.0879 20.7098 29.114 20.7055C29.9208 20.5736 30.728 20.4442 31.5365 20.3229C31.6888 20.3001 31.7358 20.2306 31.7379 20.0861C31.7431 19.716 31.7532 19.7101 32.065 19.9029C32.9521 20.4514 33.8384 21.0014 34.7217 21.5562C34.8363 21.6281 34.9001 21.6259 34.9845 21.5104C35.0929 21.3619 35.2071 21.2175 35.3213 21.0732C35.4198 20.9487 35.5183 20.8242 35.6132 20.6969C35.6881 20.5964 35.7799 20.5496 35.8959 20.5291C35.9557 20.5185 36.0155 20.508 36.0753 20.4975C36.3288 20.4531 36.5823 20.4087 36.8345 20.3577C36.9965 20.3249 37.088 20.3605 37.1283 20.5386C37.1521 20.6435 37.1866 20.746 37.2212 20.8484C37.2543 20.9467 37.2874 21.045 37.3111 21.1456C37.3477 21.3017 37.4184 21.3439 37.5722 21.3163C38.0921 21.2232 38.6134 21.138 39.1353 21.057C39.1577 21.0535 39.1818 21.0467 39.2064 21.0396C39.2853 21.0171 39.3694 20.9931 39.419 21.0751C39.4612 21.1447 39.4112 21.2124 39.3642 21.2761C39.3496 21.2957 39.3354 21.315 39.3242 21.3338C39.2049 21.5354 39.082 21.7358 38.9465 21.9264C38.8656 22.0402 38.8842 22.108 38.9808 22.1995C39.1357 22.3464 39.2873 22.4969 39.439 22.6474C39.7214 22.9276 40.0036 23.2077 40.3061 23.4637C40.5776 23.6936 40.6547 23.9577 40.6717 24.2804C40.6822 24.4793 40.6588 24.6607 40.5689 24.8435C40.3772 25.2333 40.2006 25.6307 40.025 26.0282C39.9695 26.1538 39.9049 26.194 39.7757 26.1288C39.6704 26.0757 39.561 26.0307 39.4517 25.9858C39.4187 25.9723 39.3858 25.9587 39.3529 25.9449C39.272 25.911 39.2459 25.8603 39.2656 25.7695C39.3334 25.4569 39.3949 25.143 39.4553 24.8289C39.4692 24.757 39.5072 24.7039 39.5535 24.6524C39.6079 24.5917 39.6616 24.5305 39.725 24.4581C39.7542 24.4248 39.7854 24.3891 39.8197 24.3501C39.7038 24.3192 39.5953 24.2678 39.4888 24.2173C39.2388 24.099 38.9999 23.9858 38.7033 24.1554C38.6788 24.1694 38.6519 24.1791 38.6251 24.1888C38.598 24.1985 38.571 24.2083 38.5464 24.2224C38.1699 24.4387 37.8431 24.3375 37.5404 24.0683C37.5278 24.057 37.5113 24.0501 37.4902 24.0413C37.4787 24.0366 37.466 24.0312 37.4518 24.0244C37.3575 24.2296 37.3098 24.4406 37.268 24.65C37.254 24.7203 37.3151 24.7632 37.3725 24.8036C37.3901 24.816 37.4074 24.8282 37.4221 24.8408C37.9483 25.2946 38.4758 25.747 39.0033 26.1993C39.1862 26.3561 39.369 26.5129 39.5517 26.6697C39.6029 26.7136 39.6541 26.7575 39.7053 26.8013C39.8752 26.9467 40.045 27.0921 40.213 27.2397C40.4271 27.4278 40.378 27.7596 40.1229 27.8658C39.9797 27.9254 39.8364 27.9848 39.6931 28.0442C39.3316 28.1941 38.97 28.344 38.6097 28.4971C38.4889 28.5484 38.3765 28.5619 38.2468 28.5279C38.0593 28.4788 37.8707 28.4341 37.682 28.3894C37.5112 28.349 37.3404 28.3085 37.1704 28.2647C37.0616 28.2367 36.9643 28.2424 36.8799 28.3106C36.5471 28.5796 36.2354 28.574 35.8898 28.3067C35.6944 28.1556 35.5119 28.0135 35.3722 27.8025C34.6774 26.7533 33.976 25.7086 33.2745 24.6639C33.1221 24.437 32.9697 24.21 32.8174 23.9831C32.8098 23.9718 32.8026 23.96 32.7953 23.9481C32.7643 23.8972 32.7323 23.8449 32.6656 23.8228C32.5742 23.8696 32.5163 23.9503 32.459 24.0301C32.4437 24.0514 32.4285 24.0727 32.4126 24.0932C32.348 24.177 32.2745 24.2019 32.1756 24.1863C32.0303 24.1634 31.8849 24.1414 31.7394 24.1195C31.4301 24.0727 31.1208 24.026 30.813 23.9705C30.676 23.9458 30.5624 23.9587 30.4653 24.0499C30.2602 24.2423 30.02 24.2384 29.7635 24.2097C29.7187 24.2048 29.6738 24.1986 29.6287 24.1925C29.4742 24.1716 29.3186 24.1504 29.1631 24.173C29.146 24.2599 29.1924 24.2987 29.2348 24.3342C29.2434 24.3414 29.2519 24.3484 29.2596 24.3558C29.4086 24.4967 29.5588 24.6364 29.7089 24.7761C29.8387 24.8969 29.9685 25.0176 30.0975 25.1392C30.1644 25.2022 30.2411 25.2273 30.3293 25.2315C30.4917 25.239 30.6542 25.2469 30.8166 25.2547C31.1596 25.2713 31.5025 25.2879 31.8455 25.302C31.9514 25.3063 32.0401 25.3405 32.1345 25.3872C32.6538 25.644 33.0504 26.0314 33.3723 26.5095C33.4693 26.6536 33.5781 26.7896 33.6871 26.9257C33.7462 26.9995 33.8052 27.0733 33.8625 27.1485C33.9887 27.3142 33.9663 27.3894 33.7725 27.4385C33.3153 27.5544 32.858 27.6698 32.4007 27.7853C31.6949 27.9635 30.9891 28.1416 30.2837 28.3214C30.2066 28.341 30.1405 28.3366 30.0693 28.3086C29.9546 28.2635 29.8389 28.221 29.7168 28.1761C29.6867 28.1651 29.6561 28.1538 29.6252 28.1424L29.0339 27.921ZM36.6044 29.6975C36.7912 29.744 36.9738 29.7894 37.1573 29.8306C37.2515 29.8517 37.3239 29.8932 37.3863 29.9657L37.4052 29.9876C37.626 30.2441 37.8469 30.5007 38.074 30.7517C38.1475 30.8329 38.1698 30.9075 38.1359 31.0135C38.0454 31.2965 37.9603 31.5813 37.8805 31.8674C37.8551 31.9583 37.8045 32.0126 37.7268 32.0594C36.6631 32.6997 35.5996 33.3404 34.5396 33.987C34.3861 34.0806 34.2823 34.0759 34.1595 33.9334C33.8185 33.5379 33.4701 33.1489 33.1218 32.7599C33.0551 32.6855 32.9885 32.6111 32.9219 32.5366C32.8575 32.4646 32.8254 32.3892 32.8269 32.29C32.8316 31.9753 32.8318 31.6604 32.8269 31.3456C32.8253 31.2419 32.8552 31.1589 32.9176 31.0781C33.3712 30.4906 33.8246 29.9029 34.272 29.3106C34.3625 29.1908 34.4648 29.1666 34.5989 29.2002C35.1718 29.3436 35.7452 29.4854 36.3323 29.6303L36.6044 29.6975ZM38.5048 32.622C38.5968 32.5482 38.6781 32.5571 38.7692 32.6008C39.1439 32.7805 39.5202 32.9567 39.8973 33.1313C39.97 33.1649 40.0093 33.2097 40.0311 33.2916C40.1821 33.8601 40.3391 34.4271 40.4964 34.994C40.5335 35.1279 40.5072 35.2366 40.4089 35.338C39.9128 35.8504 39.418 36.3641 38.928 36.8825C38.8453 36.9699 38.7641 36.9626 38.6665 36.9373C38.5057 36.8955 38.3444 36.855 38.1832 36.8145C37.8431 36.729 37.503 36.6436 37.1665 36.546C36.889 36.4656 36.6228 36.4406 36.3511 36.5445C36.1933 36.6049 36.1168 36.5497 36.0678 36.3874C35.9174 35.8897 35.7581 35.3945 35.5907 34.9023C35.5361 34.7416 35.5796 34.6495 35.7122 34.5581C36.4137 34.0751 37.1131 33.5891 37.817 33.0999C38.0457 32.9409 38.2749 32.7816 38.5048 32.622ZM40.8496 29.079C40.8827 29.5336 40.914 29.9723 40.9447 30.411C40.952 30.5166 40.959 30.6222 40.966 30.7279C40.9782 30.9129 40.9904 31.0979 41.0047 31.2828C41.0142 31.4046 41.0089 31.52 40.9555 31.6339C40.8342 31.8925 40.7165 32.153 40.6034 32.4153C40.5409 32.5602 40.4521 32.572 40.3357 32.4868C40.1768 32.3707 40.0181 32.2542 39.8595 32.1377C39.6231 31.9642 39.3868 31.7907 39.1497 31.6183C39.0712 31.5612 39.0519 31.4853 39.0478 31.3953C39.0333 31.0812 39.0174 30.7672 38.9976 30.4535C38.9928 30.3779 39.0199 30.322 39.0646 30.2667C39.395 29.8564 39.7251 29.4459 40.0551 29.0353C40.2221 28.8275 40.3892 28.6197 40.5563 28.412L40.5592 28.4085C40.6054 28.3508 40.6553 28.2888 40.7395 28.3208C40.8063 28.3462 40.8076 28.4066 40.8089 28.4652C40.8091 28.4765 40.8094 28.4879 40.8101 28.4988C40.8224 28.6869 40.835 28.875 40.8496 29.079Z" fill="black" stroke="black" stroke-width="2" mask="url(#path-9-inside-3_5_3329)"></path></g><defs><filter id="filter0_dii_5_3329" x="0" y="0" width="128" height="57" filterUnits="userSpaceOnUse" color-interpolation-filters="sRGB"><feFlood flood-opacity="0" result="BackgroundImageFix"></feFlood><feColorMatrix in="SourceAlpha" type="matrix" values="0 0 0 0 0 0 0 0 0 0 0 0 0 0 0 0 0 0 127 0" result="hardAlpha"></feColorMatrix><feMorphology radius="4" operator="erode" in="SourceAlpha" result="effect1_dropShadow_5_3329"></feMorphology><feOffset></feOffset><feGaussianBlur stdDeviation="8"></feGaussianBlur><feComposite in2="hardAlpha" operator="out"></feComposite><feColorMatrix type="matrix" values="0 0 0 0 0.666779 0 0 0 0 0.685171 0 0 0 0 0.657583 0 0 0 0.86 0"></feColorMatrix><feBlend mode="normal" in2="BackgroundImageFix" result="effect1_dropShadow_5_3329"></feBlend><feBlend mode="normal" in="SourceGraphic" in2="effect1_dropShadow_5_3329" result="shape"></feBlend><feColorMatrix in="SourceAlpha" type="matrix" values="0 0 0 0 0 0 0 0 0 0 0 0 0 0 0 0 0 0 127 0" result="hardAlpha"></feColorMatrix><feOffset dy="1.5"></feOffset><feGaussianBlur stdDeviation="3"></feGaussianBlur><feComposite in2="hardAlpha" operator="arithmetic" k2="-1" k3="1"></feComposite><feColorMatrix type="matrix" values="0 0 0 0 1 0 0 0 0 1 0 0 0 0 1 0 0 0 1 0"></feColorMatrix><feBlend mode="normal" in2="shape" result="effect2_innerShadow_5_3329"></feBlend><feColorMatrix in="SourceAlpha" type="matrix" values="0 0 0 0 0 0 0 0 0 0 0 0 0 0 0 0 0 0 127 0" result="hardAlpha"></feColorMatrix><feOffset dy="-2"></feOffset><feGaussianBlur stdDeviation="2"></feGaussianBlur><feComposite in2="hardAlpha" operator="arithmetic" k2="-1" k3="1"></feComposite><feColorMatrix type="matrix" values="0 0 0 0 0.535419 0 0 0 0 0.535419 0 0 0 0 0.535419 0 0 0 0.075 0"></feColorMatrix><feBlend mode="multiply" in2="effect2_innerShadow_5_3329" result="effect3_innerShadow_5_3329"></feBlend></filter></defs></svg>