<svg class="h-full" viewBox="0 0 157 39" fill="none" xmlns="http://www.w3.org/2000/svg"><path d="M53.0962 14.4765C53.0962 15.6173 52.3813 16.5908 50.1149 16.5908C47.666 16.5908 46.6621 15.45 46.6621 13.6551H47.9093C47.9093 14.9632 48.6699 15.5717 50.1301 15.5717C51.3013 15.5717 51.8489 15.2979 51.8489 14.5221C51.8489 13.5334 50.8298 13.3661 49.5977 12.9859C48.1679 12.5295 47.0119 12.0884 47.0119 10.7195C47.0119 9.51778 48.031 8.72682 49.765 8.72682C52.1227 8.72682 52.8376 10.0198 52.8376 11.267H51.5903C51.5903 10.2479 50.9667 9.74594 49.765 9.74594C48.9285 9.74594 48.2592 9.98931 48.2592 10.6738C48.2592 11.4039 48.7764 11.6321 49.9932 12.0276C51.4839 12.5143 53.0962 12.849 53.0962 14.4765ZM58.9689 8.72682C60.6725 8.72682 61.7829 9.71552 61.7829 11.8146V16.4387H60.5508V11.9819C60.5508 10.4 59.9272 9.79157 58.6343 9.79157C57.0372 9.79157 55.9116 11.0541 55.9116 13.0923V16.4387H54.6643V5.25879H55.9116V10.1871L55.7138 11.0541H56.0637C56.3679 9.6851 57.3262 8.72682 58.9689 8.72682ZM63.4954 12.56C63.4954 10.1262 65.0165 8.72682 67.1612 8.72682C69.2907 8.72682 70.6901 10.0806 70.6901 12.4078V12.8946H64.7123C64.7883 14.3244 65.4728 15.5565 67.3437 15.5565C68.591 15.5565 69.4276 14.948 69.7014 13.792H70.9486C70.6596 14.9632 69.747 16.5908 67.3437 16.5908C64.6362 16.5908 63.4954 14.7351 63.4954 12.56ZM64.7123 11.9515H69.4732C69.4732 10.7347 68.667 9.77636 67.1612 9.77636C65.6705 9.77636 64.7123 10.7347 64.7123 11.9515ZM72.6676 16.4387V9.77636C72.6676 9.06146 73.0022 8.71161 73.7171 8.74203L77.9153 8.87893V9.94368L73.9148 9.80678V16.4387H72.6676ZM85.4051 8.87893H86.7588L83.4733 16.3626V18.4769C83.4733 19.0549 83.1387 19.4048 82.4238 19.3743L79.5033 19.2374V18.1727L82.2261 18.3096V16.3626L78.9253 8.87893H80.2943L82.6672 14.7655V15.3435H83.0322V14.7655L85.4051 8.87893ZM90.2921 7.67729C89.6685 7.67729 89.1969 7.22097 89.1969 6.61254C89.1969 6.03454 89.6685 5.563 90.2921 5.563C90.9005 5.563 91.3873 6.03454 91.3873 6.61254C91.3873 7.22097 90.9005 7.67729 90.2921 7.67729ZM87.7671 16.4387V15.3739H89.8966V9.80678L88.3299 9.94368V8.87893L90.0792 8.72682C90.7941 8.66598 91.0679 9.06146 91.0679 9.63946V15.3739H93.1973V16.4387H87.7671ZM94.4812 14.3396C94.4812 13.138 95.1961 12.3166 96.9606 12.1341L99.9723 11.8451C99.8962 10.4609 99.1509 9.77636 97.8428 9.77636C96.7476 9.77636 95.7285 10.2631 95.7285 11.6929H94.5116C94.5116 10.1262 95.6981 8.72682 97.8428 8.72682C99.9571 8.72682 101.219 10.1262 101.219 12.1493V15.3739H102.33V16.4387H100.991C100.413 16.4387 100.094 16.1193 100.094 15.5565V15.1458L100.292 14.3548H99.9266C99.6376 15.5108 98.8315 16.5908 97.0062 16.5908C94.8159 16.5908 94.4812 15.1306 94.4812 14.3396ZM95.7285 14.1875C95.7285 15.0545 96.2761 15.526 97.1583 15.526C98.8771 15.526 99.9723 14.3396 99.9723 12.7729L97.1735 13.0619C96.2152 13.1532 95.7285 13.4422 95.7285 14.1875ZM107.727 9.79157C106.13 9.79157 105.004 11.0541 105.004 13.0923V16.4387H103.757V8.87893H105.004V10.1871L104.807 11.0541H105.157C105.461 9.6851 106.419 8.72682 108.062 8.72682C109.765 8.72682 110.876 9.71552 110.876 11.8146V16.4387H109.644V11.9819C109.644 10.4 109.02 9.79157 107.727 9.79157ZM118.87 14.4765C118.87 15.6173 118.155 16.5908 115.889 16.5908C113.44 16.5908 112.436 15.45 112.436 13.6551H113.683C113.683 14.9632 114.444 15.5717 115.904 15.5717C117.075 15.5717 117.623 15.2979 117.623 14.5221C117.623 13.5334 116.604 13.3661 115.372 12.9859C113.942 12.5295 112.786 12.0884 112.786 10.7195C112.786 9.51778 113.805 8.72682 115.539 8.72682C117.897 8.72682 118.612 10.0198 118.612 11.267H117.364C117.364 10.2479 116.741 9.74594 115.539 9.74594C114.703 9.74594 114.033 9.98931 114.033 10.6738C114.033 11.4039 114.55 11.6321 115.767 12.0276C117.258 12.5143 118.87 12.849 118.87 14.4765ZM46.8142 27.6512C46.8142 25.4761 48.2288 23.7269 50.6777 23.7269C52.1379 23.7269 54.0088 24.5482 54.2066 26.7386H52.9441C52.7311 25.2936 51.7729 24.7916 50.6777 24.7916C48.8828 24.7916 48.0615 26.0997 48.0615 27.6512C48.0615 29.2179 48.8828 30.526 50.6777 30.526C51.7729 30.526 52.7311 30.0241 52.9441 28.5791H54.2066C54.0088 30.7694 52.1379 31.5908 50.6777 31.5908C48.2288 31.5908 46.8142 29.8416 46.8142 27.6512ZM55.6227 27.6512C55.6227 25.4609 57.2046 23.7269 59.6231 23.7269C62.0264 23.7269 63.5931 25.4609 63.5931 27.6512C63.5931 29.8568 62.0264 31.5908 59.6231 31.5908C57.2046 31.5908 55.6227 29.8568 55.6227 27.6512ZM56.87 27.6512C56.87 29.2331 57.8283 30.526 59.6231 30.526C61.4028 30.526 62.361 29.2331 62.361 27.6512C62.361 26.0845 61.4028 24.7916 59.6231 24.7916C57.8283 24.7916 56.87 26.0845 56.87 27.6512ZM73.0871 31.4387H71.8398V30.3283L72.0527 29.4765H71.6877C71.3682 30.6477 70.3491 31.5908 68.6303 31.5908C66.44 31.5908 65.0254 29.9024 65.0254 27.6512C65.0254 25.4152 66.44 23.7269 68.6303 23.7269C70.3491 23.7269 71.3682 24.6699 71.6877 25.8564H72.0527L71.8398 24.9894V20.2588H73.0871V31.4387ZM71.8398 27.6512C71.8398 25.6434 70.5621 24.7916 68.9954 24.7916C67.4287 24.7916 66.2727 25.6434 66.2727 27.6512C66.2727 29.6742 67.4287 30.526 68.9954 30.526C70.5621 30.526 71.8398 29.6742 71.8398 27.6512ZM77.369 22.6773C76.7453 22.6773 76.2738 22.221 76.2738 21.6126C76.2738 21.0346 76.7453 20.563 77.369 20.563C77.9774 20.563 78.4641 21.0346 78.4641 21.6126C78.4641 22.221 77.9774 22.6773 77.369 22.6773ZM74.844 31.4387V30.3739H76.9735V24.8068L75.4068 24.9437V23.879L77.156 23.7269C77.8709 23.666 78.1447 24.0615 78.1447 24.6395V30.3739H80.2742V31.4387H74.844ZM85.8174 24.7916C84.2203 24.7916 83.0947 26.0541 83.0947 28.0923V31.4387H81.8474V23.879H83.0947V25.1871L82.897 26.0541H83.2468C83.551 24.6851 84.5093 23.7269 86.1521 23.7269C87.8557 23.7269 88.966 24.7156 88.966 26.8146V31.4387H87.734V26.9819C87.734 25.4 87.1103 24.7916 85.8174 24.7916ZM98.7438 23.879H99.413V24.9437H98.7742C98.3483 24.9437 98.0745 25.035 97.7855 25.2479C98.1049 25.6434 98.3027 26.191 98.3027 26.8451C98.3027 28.4726 97.025 29.4917 94.7434 30.3283C96.5078 30.0393 98.2114 30.2827 98.2114 31.9558C98.2114 33.9636 96.1428 34.2222 91.0776 34.2222V33.1575C95.4126 33.1575 96.9641 33.051 96.9641 31.8646C96.9641 30.1914 93.633 30.9976 91.7621 31.5604L91.5035 30.6934C92.7204 30.3587 93.922 30.0089 95.0932 29.6438V29.294C92.6595 29.9176 90.53 29.1267 90.53 26.7842C90.53 24.7003 92.2336 23.7269 94.4087 23.7269C95.3214 23.7269 96.2644 23.955 96.9793 24.457C97.7703 23.955 98.0593 23.879 98.7438 23.879ZM94.4239 28.8529C96.0211 28.8529 97.0554 28.2901 97.0554 26.8146C97.0554 25.3544 96.0211 24.7916 94.4239 24.7916C92.842 24.7916 91.7773 25.3544 91.7773 26.8146C91.7773 28.2901 92.842 28.8529 94.4239 28.8529ZM111.904 29.4765C111.904 30.6173 111.189 31.5908 108.922 31.5908C106.473 31.5908 105.47 30.45 105.47 28.6551H106.717C106.717 29.9632 107.477 30.5717 108.938 30.5717C110.109 30.5717 110.656 30.2979 110.656 29.5221C110.656 28.5334 109.637 28.3661 108.405 27.9859C106.975 27.5295 105.819 27.0884 105.819 25.7195C105.819 24.5178 106.839 23.7269 108.573 23.7269C110.93 23.7269 111.645 25.0198 111.645 26.267H110.398C110.398 25.2479 109.774 24.746 108.573 24.746C107.736 24.746 107.067 24.9894 107.067 25.6738C107.067 26.4039 107.584 26.6321 108.801 27.0276C110.291 27.5143 111.904 27.849 111.904 29.4765ZM113.182 27.6512C113.182 25.4761 114.597 23.7269 117.046 23.7269C118.506 23.7269 120.377 24.5482 120.575 26.7386H119.312C119.099 25.2936 118.141 24.7916 117.046 24.7916C115.251 24.7916 114.43 26.0997 114.43 27.6512C114.43 29.2179 115.251 30.526 117.046 30.526C118.141 30.526 119.099 30.0241 119.312 28.5791H120.575C120.377 30.7694 118.506 31.5908 117.046 31.5908C114.597 31.5908 113.182 29.8416 113.182 27.6512ZM126.689 23.7269C128.393 23.7269 129.503 24.7156 129.503 26.8146V31.4387H128.271V26.9819C128.271 25.4 127.647 24.7916 126.354 24.7916C124.757 24.7916 123.632 26.0541 123.632 28.0923V31.4387H122.384V20.2588H123.632V25.1871L123.434 26.0541H123.784C124.088 24.6851 125.046 23.7269 126.689 23.7269ZM131.215 27.6512C131.215 25.4609 132.797 23.7269 135.216 23.7269C137.619 23.7269 139.186 25.4609 139.186 27.6512C139.186 29.8568 137.619 31.5908 135.216 31.5908C132.797 31.5908 131.215 29.8568 131.215 27.6512ZM132.463 27.6512C132.463 29.2331 133.421 30.526 135.216 30.526C136.995 30.526 137.954 29.2331 137.954 27.6512C137.954 26.0845 136.995 24.7916 135.216 24.7916C133.421 24.7916 132.463 26.0845 132.463 27.6512ZM140.618 27.6512C140.618 25.4609 142.2 23.7269 144.618 23.7269C147.022 23.7269 148.588 25.4609 148.588 27.6512C148.588 29.8568 147.022 31.5908 144.618 31.5908C142.2 31.5908 140.618 29.8568 140.618 27.6512ZM141.865 27.6512C141.865 29.2331 142.824 30.526 144.618 30.526C146.398 30.526 147.356 29.2331 147.356 27.6512C147.356 26.0845 146.398 24.7916 144.618 24.7916C142.824 24.7916 141.865 26.0845 141.865 27.6512ZM149.349 31.4387V30.3739H151.478V21.1867L149.912 21.3236V20.2588L151.676 20.1067C152.376 20.0459 152.71 20.4414 152.71 21.1563V30.3739H154.825V31.4387H149.349Z" fill="white"></path><path d="M41.2188 5.43848V34.7241" stroke="white" stroke-width="0.563185"></path><path d="M9.55565 18.7651C9.14567 18.6129 8.73897 18.4614 8.33429 18.3107C7.57206 18.0267 6.81701 17.7455 6.06075 17.4675C5.87442 17.399 5.74604 17.2997 5.64895 17.1174C4.83671 15.5926 4.01672 14.0719 3.19039 12.5547C3.07327 12.3397 3.06909 12.1593 3.15421 11.9255C3.4809 11.0282 3.74968 10.1124 4.01847 9.19653C4.13982 8.78305 4.26117 8.36957 4.38785 7.95777C4.5811 7.32959 4.76779 6.6992 4.9441 6.0661C4.99452 5.88506 5.08565 5.75228 5.22867 5.63731C5.3942 5.50426 5.56014 5.37167 5.72609 5.23909C6.29497 4.78456 6.86391 4.32999 7.41636 3.85623C7.69452 3.61769 8.01529 3.57112 8.33766 3.52432C8.39167 3.51648 8.44573 3.50864 8.49964 3.49988C10.1663 3.22909 11.834 2.96358 13.504 2.71462C13.8188 2.6677 13.9159 2.52504 13.9201 2.22852C13.9309 1.46872 13.9517 1.45673 14.5958 1.8524C16.4285 2.97822 18.2593 4.10734 20.084 5.24599C20.3207 5.39368 20.4526 5.38923 20.6269 5.1521C20.8509 4.84714 21.0868 4.55089 21.3227 4.25463C21.5262 3.99904 21.7297 3.74345 21.9257 3.48222C22.0804 3.27594 22.27 3.17989 22.5096 3.1378C22.6332 3.11609 22.7568 3.09455 22.8804 3.07302C23.404 2.98181 23.9277 2.89058 24.4486 2.7859C24.7833 2.71865 24.9724 2.7917 25.0556 3.15728C25.1047 3.37269 25.176 3.58298 25.2474 3.79331C25.3158 3.99505 25.3843 4.19682 25.4331 4.40318C25.5089 4.72377 25.6548 4.81025 25.9726 4.75367C27.0465 4.56249 28.1235 4.38771 29.2017 4.2214C29.2479 4.21427 29.2976 4.20015 29.3484 4.18574C29.5114 4.1395 29.6852 4.09018 29.7877 4.25845C29.8748 4.40142 29.7715 4.54044 29.6744 4.67108C29.6444 4.71142 29.615 4.75097 29.5919 4.78958C29.3454 5.20336 29.0916 5.61464 28.8116 6.00602C28.6445 6.23954 28.6829 6.37865 28.8824 6.56662C29.2024 6.86803 29.5157 7.17701 29.829 7.48593C30.4123 8.06104 30.9954 8.63597 31.6202 9.16155C32.181 9.63329 32.3404 10.1755 32.3755 10.8379C32.3971 11.2461 32.3489 11.6185 32.1632 11.9936C31.7672 12.7937 31.4022 13.6094 31.0395 14.4254C30.9248 14.6833 30.7915 14.7657 30.5246 14.6319C30.3071 14.5229 30.0811 14.4306 29.8553 14.3384C29.7871 14.3106 29.719 14.2828 29.6512 14.2545C29.4841 14.1849 29.4301 14.0808 29.4708 13.8943C29.6109 13.2528 29.7378 12.6084 29.8627 11.9637C29.8913 11.8161 29.9699 11.7072 30.0655 11.6014C30.178 11.4769 30.2889 11.3511 30.4198 11.2026C30.4801 11.1342 30.5446 11.0609 30.6155 10.9808C30.3761 10.9175 30.1519 10.812 29.9318 10.7084C29.4154 10.4654 28.9219 10.2332 28.3092 10.5813C28.2586 10.61 28.2031 10.6299 28.1476 10.6498C28.0917 10.6698 28.0359 10.6898 27.9851 10.7188C27.2072 11.1628 26.5323 10.9551 25.9069 10.4025C25.8808 10.3793 25.8467 10.3652 25.8031 10.3471C25.7795 10.3373 25.7532 10.3264 25.7239 10.3123C25.529 10.7336 25.4305 11.1667 25.3442 11.5964C25.3152 11.7407 25.4414 11.8289 25.56 11.9118C25.5964 11.9372 25.6322 11.9622 25.6625 11.9882C26.7496 12.9197 27.8393 13.8482 28.929 14.7767C29.3067 15.0985 29.6843 15.4203 30.0619 15.7422C30.1675 15.8323 30.2733 15.9223 30.3791 16.0123C30.73 16.3108 31.0809 16.6093 31.4279 16.9122C31.8702 17.2983 31.7688 17.9794 31.2418 18.1974C30.946 18.3197 30.65 18.4416 30.354 18.5636C29.6071 18.8713 28.8601 19.179 28.1158 19.4931C27.8663 19.5984 27.634 19.6262 27.3662 19.5564C26.9789 19.4556 26.5892 19.3639 26.1995 19.2721C25.8466 19.1891 25.4937 19.1061 25.1425 19.0162C24.9177 18.9587 24.7168 18.9703 24.5425 19.1103C23.855 19.6624 23.2111 19.6511 22.4971 19.1023C22.0934 18.7921 21.7165 18.5005 21.4279 18.0674C19.9926 15.9138 18.5435 13.7694 17.0944 11.625C16.7796 11.1592 16.4648 10.6934 16.1502 10.2275C16.1345 10.2043 16.1196 10.1801 16.1046 10.1557C16.0404 10.0513 15.9744 9.94394 15.8365 9.89861C15.6478 9.99458 15.5282 10.1602 15.4098 10.3241C15.3782 10.3678 15.3467 10.4114 15.314 10.4536C15.1805 10.6256 15.0286 10.6766 14.8243 10.6447C14.5242 10.5977 14.2238 10.5526 13.9233 10.5075C13.2843 10.4115 12.6453 10.3156 12.0094 10.2017C11.7265 10.151 11.4919 10.1774 11.2913 10.3646C10.8676 10.7597 10.3714 10.7517 9.84149 10.6928C9.7489 10.6826 9.65606 10.67 9.56303 10.6575C9.24387 10.6144 8.92243 10.571 8.60118 10.6173C8.56572 10.7957 8.66159 10.8753 8.74925 10.9482C8.76706 10.963 8.78453 10.9775 8.8005 10.9925C9.10825 11.2819 9.41847 11.5686 9.7287 11.8554C9.99683 12.1032 10.265 12.3511 10.5315 12.6006C10.6697 12.73 10.828 12.7815 11.0102 12.79C11.3458 12.8055 11.6814 12.8217 12.017 12.8378C12.7254 12.8718 13.4338 12.9058 14.1424 12.9347C14.3611 12.9436 14.5445 13.0138 14.7395 13.1097C15.8123 13.6368 16.6314 14.4319 17.2964 15.4134C17.4969 15.7092 17.7217 15.9883 17.9467 16.2676C18.0688 16.4191 18.1908 16.5707 18.3091 16.7249C18.5698 17.0651 18.5235 17.2195 18.1232 17.3203C17.1787 17.5581 16.234 17.7951 15.2893 18.0321C13.8313 18.3978 12.3733 18.7635 10.9161 19.1325C10.7569 19.1728 10.6203 19.1637 10.4731 19.1062C10.2362 19.0137 9.99721 18.9264 9.74493 18.8343C9.6827 18.8116 9.61967 18.7885 9.55565 18.7651Z" fill="white"></path><path d="M23.4114 21.8195C23.6015 21.8655 23.7885 21.9118 23.9735 21.9575C24.3594 22.0528 24.7366 22.146 25.1157 22.2306C25.3102 22.274 25.4598 22.3592 25.5887 22.5079C25.6017 22.5229 25.6147 22.5379 25.6277 22.5529C26.0839 23.0795 26.5403 23.6062 27.0094 24.1213C27.1612 24.288 27.2073 24.4412 27.1373 24.6588C26.9503 25.2395 26.7745 25.8241 26.6097 26.4114C26.5572 26.5981 26.4527 26.7094 26.2921 26.8055C24.0948 28.1199 21.8978 29.4349 19.7081 30.7621C19.391 30.9543 19.1765 30.9446 18.9228 30.6522C18.2185 29.8404 17.4988 29.0418 16.7792 28.2434C16.6415 28.0906 16.5038 27.9379 16.3663 27.785C16.2332 27.6372 16.1669 27.4826 16.17 27.2789C16.1798 26.6329 16.1801 25.9865 16.17 25.3404C16.1667 25.1275 16.2285 24.9572 16.3574 24.7913C17.2944 23.5853 18.231 22.379 19.1552 21.1633C19.3422 20.9174 19.5536 20.8677 19.8305 20.9366C21.0141 21.2311 22.1986 21.5219 23.4114 21.8195Z" fill="white"></path><path d="M27.8995 27.9602C28.0894 27.8086 28.2575 27.827 28.4456 27.9166C29.2197 28.2854 29.9971 28.6471 30.7761 29.0055C30.9262 29.0746 31.0075 29.1664 31.0524 29.3345C31.3644 30.5016 31.6888 31.6654 32.0137 32.829C32.0904 33.1039 32.036 33.3269 31.833 33.5352C30.808 34.5868 29.7859 35.6414 28.7736 36.7053C28.6028 36.8848 28.4351 36.8699 28.2335 36.8179C27.9012 36.7321 27.5681 36.6489 27.2351 36.5658C26.5325 36.3904 25.83 36.215 25.1347 36.0147C24.5616 35.8496 24.0117 35.7983 23.4504 36.0116C23.1243 36.1356 22.9664 36.0223 22.8651 35.6892C22.5545 34.6676 22.2253 33.6511 21.8796 32.6408C21.7667 32.3109 21.8565 32.1219 22.1306 31.9343C23.5796 30.9429 25.0244 29.9453 26.4785 28.9411C26.951 28.6148 27.4245 28.2878 27.8995 27.9602Z" fill="white"></path><path d="M32.7428 20.6875C32.8112 21.6207 32.876 22.5211 32.9393 23.4217C32.9545 23.6385 32.9689 23.8553 32.9833 24.0721C33.0085 24.4519 33.0337 24.8317 33.0634 25.2112C33.083 25.4612 33.0719 25.698 32.9616 25.9318C32.7111 26.4627 32.4679 26.9973 32.2342 27.5358C32.1051 27.8332 31.9218 27.8574 31.6812 27.6826C31.353 27.4442 31.0252 27.2051 30.6975 26.966C30.2092 26.6099 29.721 26.2537 29.2312 25.8998C29.0692 25.7827 29.0292 25.6269 29.0207 25.442C28.9909 24.7974 28.958 24.1529 28.9171 23.5089C28.9072 23.3537 28.9632 23.2391 29.0554 23.1254C29.738 22.2834 30.4199 21.4406 31.1017 20.5979C31.4467 20.1714 31.7918 19.7449 32.137 19.3185C32.1389 19.3161 32.1409 19.3136 32.1429 19.3112C32.2385 19.1929 32.3415 19.0655 32.5155 19.1313C32.6535 19.1834 32.6562 19.3073 32.6588 19.4276C32.6593 19.4509 32.6598 19.4742 32.6613 19.4967C32.6868 19.8827 32.7127 20.2688 32.7428 20.6875Z" fill="white"></path><path fill-rule="evenodd" clip-rule="evenodd" d="M8.33429 18.3107C7.57206 18.0267 6.81701 17.7455 6.06075 17.4675C5.87442 17.399 5.74604 17.2997 5.64895 17.1174C4.83671 15.5926 4.01672 14.0719 3.19039 12.5547C3.07327 12.3397 3.06909 12.1593 3.15421 11.9255C3.4809 11.0282 3.74968 10.1124 4.01847 9.19653C4.13982 8.78305 4.26117 8.36957 4.38785 7.95777C4.5811 7.32959 4.76779 6.6992 4.9441 6.0661C4.99452 5.88506 5.08565 5.75228 5.22867 5.63731C5.3942 5.50426 5.56014 5.37167 5.72609 5.23909C6.29497 4.78456 6.86391 4.32999 7.41636 3.85623C7.69452 3.61769 8.01529 3.57112 8.33766 3.52432C8.39167 3.51648 8.44573 3.50864 8.49964 3.49988C10.1663 3.22909 11.834 2.96358 13.504 2.71462C13.8188 2.6677 13.9159 2.52504 13.9201 2.22852C13.9309 1.46872 13.9517 1.45673 14.5958 1.8524C16.4285 2.97822 18.2593 4.10734 20.084 5.24599C20.3207 5.39368 20.4526 5.38923 20.6269 5.1521C20.8509 4.84714 21.0868 4.55089 21.3227 4.25463C21.5262 3.99904 21.7297 3.74345 21.9257 3.48222C22.0804 3.27594 22.27 3.17989 22.5096 3.1378C22.6332 3.11609 22.7568 3.09455 22.8804 3.07302C23.404 2.98181 23.9277 2.89058 24.4486 2.7859C24.7833 2.71865 24.9724 2.7917 25.0556 3.15728C25.1047 3.37269 25.176 3.58298 25.2474 3.79331C25.3158 3.99505 25.3843 4.19682 25.4331 4.40318C25.5089 4.72377 25.6548 4.81025 25.9726 4.75367C27.0465 4.56249 28.1235 4.38771 29.2017 4.2214C29.2479 4.21427 29.2976 4.20015 29.3484 4.18574C29.5114 4.1395 29.6852 4.09018 29.7877 4.25845C29.8748 4.40142 29.7715 4.54044 29.6744 4.67108C29.6444 4.71142 29.615 4.75097 29.5919 4.78958C29.3454 5.20336 29.0916 5.61464 28.8116 6.00602C28.6445 6.23954 28.6829 6.37865 28.8824 6.56662C29.2024 6.86803 29.5157 7.17701 29.829 7.48593C30.4123 8.06104 30.9954 8.63597 31.6202 9.16155C32.181 9.63329 32.3404 10.1755 32.3755 10.8379C32.3971 11.2461 32.3489 11.6185 32.1632 11.9936C31.7672 12.7937 31.4022 13.6094 31.0395 14.4254C30.9248 14.6833 30.7915 14.7657 30.5246 14.6319C30.3071 14.5229 30.0811 14.4306 29.8553 14.3384C29.7871 14.3106 29.719 14.2828 29.6512 14.2545C29.4841 14.1849 29.4301 14.0808 29.4708 13.8943C29.6109 13.2528 29.7378 12.6084 29.8627 11.9637C29.8913 11.8161 29.9699 11.7072 30.0655 11.6014C30.178 11.4769 30.2889 11.3511 30.4198 11.2026C30.4801 11.1342 30.5446 11.0609 30.6155 10.9808C30.3761 10.9175 30.1519 10.812 29.9318 10.7084C29.4154 10.4654 28.9219 10.2332 28.3092 10.5813C28.2586 10.61 28.2031 10.6299 28.1476 10.6498C28.0917 10.6698 28.0359 10.6898 27.9851 10.7188C27.2072 11.1628 26.5323 10.9551 25.9069 10.4025C25.8808 10.3793 25.8467 10.3652 25.8031 10.3471C25.7795 10.3373 25.7532 10.3264 25.7239 10.3123C25.529 10.7336 25.4305 11.1667 25.3442 11.5964C25.3152 11.7407 25.4414 11.8289 25.56 11.9118C25.5964 11.9372 25.6322 11.9622 25.6625 11.9882C26.7496 12.9197 27.8393 13.8482 28.929 14.7767C29.3067 15.0985 29.6843 15.4203 30.0619 15.7422C30.1675 15.8323 30.2733 15.9223 30.3791 16.0123C30.73 16.3108 31.0809 16.6093 31.4279 16.9122C31.8702 17.2983 31.7688 17.9794 31.2418 18.1974C30.946 18.3197 30.65 18.4416 30.354 18.5636C29.6071 18.8713 28.8601 19.179 28.1158 19.4931C27.8663 19.5984 27.634 19.6262 27.3662 19.5564C26.9789 19.4556 26.5892 19.3639 26.1995 19.2721C25.8466 19.1891 25.4937 19.1061 25.1425 19.0162C24.9177 18.9587 24.7168 18.9703 24.5425 19.1103C23.855 19.6624 23.2111 19.6511 22.4971 19.1023C22.0934 18.7921 21.7165 18.5005 21.4279 18.0674C19.9926 15.9138 18.5435 13.7694 17.0944 11.625C16.7796 11.1592 16.4648 10.6934 16.1502 10.2275C16.1345 10.2043 16.1196 10.1801 16.1046 10.1557C16.0404 10.0513 15.9744 9.94394 15.8365 9.89861C15.6478 9.99458 15.5282 10.1602 15.4098 10.3241C15.3782 10.3678 15.3467 10.4114 15.314 10.4536C15.1805 10.6256 15.0286 10.6766 14.8243 10.6447C14.5242 10.5977 14.2238 10.5526 13.9233 10.5075C13.2843 10.4115 12.6453 10.3156 12.0094 10.2017C11.7265 10.151 11.4919 10.1774 11.2913 10.3646C10.8676 10.7597 10.3714 10.7517 9.84149 10.6928C9.7489 10.6826 9.65606 10.67 9.56303 10.6575C9.24387 10.6144 8.92243 10.571 8.60118 10.6173C8.56572 10.7957 8.66159 10.8753 8.74925 10.9482C8.76706 10.963 8.78453 10.9775 8.8005 10.9925C9.10825 11.2819 9.41847 11.5686 9.7287 11.8554C9.99683 12.1032 10.265 12.3511 10.5315 12.6006C10.6697 12.73 10.828 12.7815 11.0102 12.79C11.3458 12.8055 11.6814 12.8217 12.017 12.8378C12.7254 12.8718 13.4338 12.9058 14.1424 12.9347C14.3611 12.9436 14.5445 13.0138 14.7395 13.1097C15.8123 13.6368 16.6314 14.4319 17.2964 15.4134C17.4969 15.7092 17.7217 15.9883 17.9467 16.2676C18.0688 16.4191 18.1908 16.5707 18.3091 16.7249C18.5698 17.0651 18.5235 17.2195 18.1232 17.3203C17.1787 17.5581 16.234 17.7951 15.2893 18.0321C13.8313 18.3978 12.3733 18.7635 10.9161 19.1325C10.7569 19.1728 10.6203 19.1637 10.4731 19.1062C10.2362 19.0137 9.99721 18.9264 9.74493 18.8343C9.6827 18.8116 9.61967 18.7885 9.55565 18.7651L8.33429 18.3107ZM23.9733 21.9572C24.3592 22.0525 24.7364 22.1457 25.1155 22.2303C25.31 22.2737 25.4596 22.3589 25.5885 22.5076L25.6275 22.5526C26.0837 23.0792 26.5401 23.6059 27.0092 24.121C27.161 24.2877 27.2071 24.4409 27.1371 24.6585C26.9501 25.2392 26.7743 25.8238 26.6095 26.4111C26.557 26.5978 26.4525 26.7091 26.2919 26.8052C24.0946 28.1196 21.8976 29.4346 19.7079 30.7618C19.3908 30.954 19.1763 30.9443 18.9226 30.6519C18.2183 29.8401 17.4986 29.0415 16.779 28.2431C16.6413 28.0903 16.5036 27.9376 16.3661 27.7847C16.233 27.6369 16.1667 27.4823 16.1698 27.2786C16.1796 26.6326 16.1799 25.9862 16.1698 25.3401C16.1665 25.1272 16.2283 24.9569 16.3572 24.791C17.2942 23.585 18.2308 22.3787 19.155 21.163C19.342 20.9171 19.5534 20.8674 19.8303 20.9363C21.0139 21.2308 22.1984 21.5217 23.4112 21.8193L23.9733 21.9572ZM27.8992 27.9601C28.0891 27.8085 28.2572 27.8269 28.4453 27.9165C29.2194 28.2853 29.9968 28.647 30.7758 29.0054C30.9259 29.0745 31.0072 29.1663 31.0521 29.3344C31.3641 30.5015 31.6885 31.6653 32.0134 32.8289C32.0901 33.1038 32.0357 33.3268 31.8327 33.5351C30.8077 34.5867 29.7856 35.6413 28.7733 36.7052C28.6025 36.8847 28.4348 36.8698 28.2332 36.8178C27.9009 36.732 27.5678 36.6488 27.2348 36.5657C26.5322 36.3903 25.8297 36.2149 25.1344 36.0146C24.5613 35.8495 24.0114 35.7982 23.4501 36.0115C23.124 36.1355 22.9661 36.0222 22.8648 35.6891C22.5542 34.6675 22.225 33.651 21.8793 32.6407C21.7664 32.3108 21.8562 32.1218 22.1303 31.9342C23.5793 30.9428 25.0241 29.9452 26.4782 28.941C26.9507 28.6147 27.4242 28.2877 27.8992 27.9601ZM32.7429 20.6875C32.8113 21.6207 32.8761 22.5211 32.9394 23.4217C32.9546 23.6385 32.969 23.8553 32.9834 24.0721C33.0086 24.4519 33.0338 24.8317 33.0635 25.2112C33.0831 25.4612 33.072 25.698 32.9617 25.9318C32.7112 26.4627 32.468 26.9973 32.2343 27.5358C32.1052 27.8332 31.9219 27.8574 31.6813 27.6826C31.3531 27.4442 31.0253 27.2051 30.6976 26.966C30.2093 26.6099 29.7211 26.2537 29.2313 25.8998C29.0693 25.7827 29.0293 25.6269 29.0208 25.442C28.991 24.7974 28.9581 24.1529 28.9172 23.5089C28.9073 23.3537 28.9633 23.2391 29.0555 23.1254C29.7381 22.2834 30.42 21.4406 31.1018 20.5979C31.4468 20.1714 31.7919 19.7449 32.1371 19.3185L32.143 19.3112C32.2386 19.1929 32.3416 19.0655 32.5156 19.1313C32.6536 19.1834 32.6563 19.3073 32.6589 19.4276C32.6594 19.4509 32.6599 19.4742 32.6614 19.4967C32.6869 19.8827 32.7128 20.2688 32.7429 20.6875Z" fill="white"></path></svg>