 <svg
              width="51"
              height="60"
              viewBox="0 0 51 60"
              fill="none"
              xmlns="http://www.w3.org/2000/svg"
              className="block h-14 w-12"
            >
              <path
                d="M18.2098 0.906115C18.2098 1.79913 18.0157 1.87679 15.6084 2.10975C9.70673 2.69215 8.42544 3.0416 5.90169 4.94411C3.76621 6.53602 3.41677 7.00194 2.83437 8.90446C2.48492 10.0693 1.70838 12.593 1.08715 14.4955L0 17.9123L2.25196 22.2221C3.49442 24.5905 4.77571 26.6872 5.0475 26.8425C5.35812 26.9978 7.29946 27.7355 9.35729 28.5509L13.1235 29.9875L17.5109 28.745C19.9182 28.0461 22.8302 27.3084 23.995 27.1143C26.7129 26.6872 27.0624 26.1436 25.5093 24.5517C24.8881 23.8917 24.1503 22.921 23.8786 22.4551C23.6456 21.9891 22.6361 21.0185 21.6266 20.3196C19.8794 19.0771 18.3651 18.6888 14.8707 18.65C13.6671 18.6112 12.9294 18.3006 11.6481 17.2134C10.7551 16.4369 10.1338 15.6992 10.2503 15.5827C10.3668 15.4274 11.1433 15.3886 11.9587 15.4662C12.8129 15.505 13.8224 15.3497 14.2883 15.0779C14.9095 14.6508 15.6084 14.6508 17.8216 15.0391C20.2288 15.4662 20.6559 15.4274 21.1995 14.8838C21.9372 14.1849 21.7431 13.9908 24.9657 18.8053C27.4895 22.6492 28.8484 24.6682 30.9839 27.7743C31.6051 28.6285 32.6534 29.638 33.3912 29.9487C34.5171 30.4922 34.8277 30.5311 35.9537 30.0651C36.8467 29.6769 37.5456 29.638 38.4775 29.9098C40.8847 30.6087 42.7873 30.4146 45.8934 29.0556C48.3395 28.0073 48.8831 27.619 48.8831 26.9202C48.8831 26.1436 48.456 25.7165 45.9711 23.7363C45.2722 23.1539 39.7976 18.4559 38.9046 17.6405C38.2833 17.0969 38.0892 16.5922 38.2445 15.971C38.5163 15.0779 38.9822 14.845 39.3705 15.505C39.7199 16.0486 41.1954 15.971 42.7484 15.3497C43.7968 14.8838 44.2627 14.8838 45.0004 15.2332C46.0487 15.7768 46.0099 15.505 45.1945 18.3394C44.418 21.0185 44.5345 21.4844 46.1264 22.028C47.2524 22.4162 47.33 22.3774 48.0677 20.8243C49.6985 17.3299 49.9314 16.4369 49.7761 15.0391C49.582 13.5249 49.1549 13.0201 45.8546 9.95279C44.7286 8.94329 43.8356 8.01144 43.8356 7.89496C43.8356 7.81731 44.3015 7.00194 44.8451 6.14775C45.3887 5.25473 45.7381 4.47819 45.6216 4.32288C45.4275 4.12875 40.7683 4.78881 39.0987 5.25473C38.6328 5.41004 38.3222 5.02177 37.9339 3.77931C37.4291 2.30388 37.235 2.10975 36.2255 2.14857C35.6043 2.1874 34.4783 2.22623 33.7406 2.26506C32.6146 2.30388 32.1487 2.6145 31.0615 4.08992C29.4696 6.18657 29.0037 6.14775 25.5481 3.81813C24.3057 3.00277 23.1408 2.30388 22.9855 2.30388C22.8302 2.30388 21.976 1.76031 21.1607 1.13908C19.2582 -0.297522 18.2098 -0.375175 18.2098 0.906115Z"
                fill="white"
              />
              <path
                d="M47.6774 31.5022C43.8723 35.9673 43.6394 36.3944 43.7558 38.724C43.8723 40.4324 44.0665 40.976 44.9206 41.7525C45.5031 42.2573 46.1243 42.6844 46.2796 42.6844C46.4349 42.6844 47.095 43.0726 47.755 43.5385C48.9586 44.4316 48.9586 44.4316 49.5411 43.655C51.0165 41.7137 51.2106 40.6265 50.8223 36.0449C50.6282 33.5989 50.4341 31.1528 50.4341 30.5315C50.4341 28.9396 49.6187 29.2502 47.6774 31.5022Z"
                fill="white"
              />
              <path
                d="M27.646 32.5525C27.4519 32.6689 26.7142 33.562 25.9764 34.5326C25.2387 35.5033 24.5398 36.3575 24.4234 36.474C24.3069 36.5905 23.7633 37.3282 23.1421 38.1047C22.2879 39.2695 22.0938 39.9296 22.0938 41.6768C22.0938 43.7346 22.2102 43.9676 24.1128 46.0642C27.413 49.7916 27.3354 49.714 28.5778 49.1704C29.1603 48.8986 30.6357 48.0832 31.8005 47.3455C32.9653 46.6078 34.4019 45.7148 34.9455 45.4042C39.7212 42.6863 39.8377 42.5698 40.5365 40.4343L41.1966 38.3377L39.6435 36.5516C38.3234 34.9597 37.7798 34.6491 35.6443 34.1055C30.7133 32.8631 27.9566 32.3195 27.646 32.5525Z"
                fill="white"
              />
              <path
                d="M39.3669 46.1791C37.8915 47.2275 36.0278 48.4311 35.2901 48.8582C34.5524 49.2853 33.4264 50.1007 32.7664 50.6442L31.6016 51.6149L32.4946 54.0998C32.9605 55.4976 33.3488 56.973 33.3488 57.4001C33.3488 58.099 33.5817 58.1767 35.7949 58.1767C37.1538 58.1767 39.2893 58.5261 40.7259 58.992L43.2496 59.7686L46.2781 56.6624C49.6561 53.168 49.5396 53.7504 48.2195 48.5864C47.8312 47.0722 47.3265 46.0238 46.977 45.9073C46.6276 45.7909 45.6569 45.3638 44.7639 44.9755C43.9097 44.5484 42.939 44.2378 42.6284 44.2766C42.3178 44.2766 40.8812 45.1308 39.3669 46.1791Z"
                fill="white"
              />
            </svg>